<svg width="120" height="48" viewBox="0 0 120 48" fill="none" xmlns="http://www.w3.org/2000/svg">
<path d="M100.836 34.7739C105.946 34.4307 110.263 32.5399 113.74 29.1027C117.603 25.2828 119.535 20.458 119.535 14.6324C119.535 9.32095 118.016 4.76515 114.77 1.1449C114.676 1.04026 114.515 0.961174 114.363 0.961174C114.072 0.961174 113.834 1.19739 113.834 1.48956C113.834 1.53997 113.841 1.58797 113.854 1.63529C116.247 8.05767 114.855 14.5132 110.629 16.2209C107.67 17.4169 104.085 15.9737 101.254 12.8445C101.041 12.6321 100.68 12.6262 100.467 12.8376C100.274 13.0303 100.257 13.3311 100.413 13.5428C100.413 13.5428 100.471 13.6098 100.472 13.6112C102.917 16.3653 104.165 19.777 104.165 23.7833C104.165 27.7828 102.934 31.1426 100.474 33.8626C100.372 33.9589 100.307 34.0953 100.307 34.2466C100.307 34.5377 100.544 34.7739 100.836 34.7739Z" fill="#646C76"/>
<path opacity="0.600006" d="M2.16561 40.5826C2.16561 41.9315 5.10698 41.4629 5.10698 43.3819C5.10698 44.2284 4.44308 44.9816 3.28756 44.9816C2.58907 44.9816 1.98259 44.7074 1.59338 44.4449L1.81099 44.0105C2.11994 44.2391 2.72641 44.5471 3.29864 44.5471C4.09989 44.5471 4.55794 44.1016 4.55794 43.4054C4.55794 41.8742 1.65047 42.4678 1.65047 40.5719C1.65047 39.8408 2.17702 39.1546 3.35607 39.1546C3.95112 39.1546 4.59185 39.2692 5.0845 39.5669L4.90114 39.9889C4.44308 39.7261 3.98572 39.6118 3.35607 39.6118C2.55481 39.6118 2.16561 39.9775 2.16561 40.5826Z" fill="#646C76"/>
<path opacity="0.600006" d="M9.83507 44.8677L9.75515 44.2506C9.48045 44.5365 8.83939 44.9817 8.02637 44.9817C6.85909 44.9817 6.13811 44.2506 6.13811 42.7307V39.2693H6.69891V42.6285C6.69891 43.9419 7.08812 44.502 8.10664 44.502C8.72487 44.502 9.28568 44.1936 9.68596 43.8507V39.2693H10.2585V44.8677H9.83507Z" fill="#646C76"/>
<path opacity="0.600006" d="M13.6476 39.589C12.4225 39.589 11.9191 40.6858 11.9191 41.7826H15.2957C15.2957 40.6858 14.9065 39.589 13.6476 39.589ZM11.9191 42.2285C11.9191 43.8506 12.7322 44.5364 13.8648 44.5364C14.6661 44.5364 15.33 44.1365 15.6621 43.9072L15.8451 44.3185C15.3642 44.6162 14.6661 44.9816 13.8306 44.9816C12.3768 44.9816 11.3698 43.988 11.3698 42.022C11.3698 40.2172 12.2281 39.1545 13.6818 39.1545C15.2041 39.1545 15.8451 40.423 15.8451 41.8286V42.2285H11.9191Z" fill="#646C76"/>
<path opacity="0.600006" d="M19.6002 38.2302L18.4785 37.8189C18.0893 37.6697 17.8032 37.8071 17.6316 38.1155L17.2995 37.967C17.4943 37.4528 17.9177 37.0985 18.5699 37.3499L19.669 37.7612C20.0354 37.8983 20.2755 37.7612 20.4014 37.43L20.7332 37.5557C20.6304 38.1155 20.207 38.4467 19.6002 38.2302ZM20.5616 44.868V41.4515C20.5616 40.2749 20.2184 39.6122 19.1425 39.6122C18.4557 39.6122 17.952 40.0121 17.5742 40.3889V44.868H17.0134V39.2696H17.3798L17.5285 39.9434C17.8375 39.635 18.4325 39.155 19.2798 39.155C20.5388 39.155 21.1342 39.921 21.1342 41.2916V44.868H20.5616Z" fill="#646C76"/>
<path opacity="0.600006" d="M25.6559 42.1713H24.1336C23.0234 42.1713 22.6802 42.6517 22.6802 43.2802C22.6802 44.022 23.0923 44.5476 24.0305 44.5476C24.683 44.5476 25.2895 44.1484 25.6559 43.6908V42.1713ZM25.8164 44.8681L25.6901 44.1139C25.3355 44.5476 24.7058 44.9821 23.9164 44.9821C22.7601 44.9821 22.1423 44.1936 22.1423 43.3026C22.1423 42.3657 22.8286 41.7372 24.0651 41.7372H25.6559V41.2116C25.6559 40.104 25.2324 39.6123 24.2595 39.6123C23.5271 39.6123 22.9203 39.8181 22.5425 39.9894L22.3827 39.567C22.7719 39.395 23.3898 39.155 24.3398 39.155C25.5303 39.155 26.1938 39.8063 26.1938 41.109V44.8681H25.8164Z" fill="#646C76"/>
<path opacity="0.800003" d="M31.895 39.589C30.6703 39.589 30.1669 40.6858 30.1669 41.7826H33.5432C33.5432 40.6858 33.1543 39.589 31.895 39.589ZM30.1669 42.2285C30.1669 43.8506 30.9796 44.5364 32.1126 44.5364C32.9139 44.5364 33.5778 44.1365 33.9095 43.9072L34.0926 44.3185C33.6117 44.6162 32.9139 44.9816 32.078 44.9816C30.6246 44.9816 29.6175 43.988 29.6175 42.022C29.6175 40.2172 30.4755 39.1545 31.9296 39.1545C33.4515 39.1545 34.0926 40.423 34.0926 41.8286V42.2285H30.1669Z" fill="#646C76"/>
<path opacity="0.800003" d="M38.752 44.8679V41.4514C38.752 40.2748 38.4428 39.6121 37.3672 39.6121C36.6801 39.6121 36.1992 40.012 35.8217 40.3888V44.8679H35.2609V39.2695H35.6273L35.7757 39.9547C36.085 39.6466 36.6572 39.1549 37.4927 39.1549C38.294 39.1549 38.8205 39.4636 39.0952 40.0465C39.4156 39.715 40.0338 39.1549 40.8693 39.1549C42.1283 39.1549 42.8154 39.8863 42.8154 41.2919V44.8679H42.2428V41.4514C42.2428 40.2638 41.8193 39.6121 40.7431 39.6121C40.1483 39.6121 39.599 39.9892 39.2208 40.3888C39.2897 40.6519 39.3239 40.9489 39.3239 41.2919V44.8679H38.752Z" fill="#646C76"/>
<path opacity="0.800003" d="M44.545 43.8969C44.957 44.2964 45.4722 44.5475 46.0444 44.5475C47.2348 44.5475 47.7386 43.794 47.7386 42.0572C47.7386 40.5146 47.3033 39.6122 46.1132 39.6122C45.4953 39.6122 44.9228 39.9669 44.545 40.3547V43.8969ZM44.4993 39.9434C44.957 39.4747 45.5178 39.1549 46.2046 39.1549C47.6929 39.1549 48.3104 40.2062 48.3104 42.0572C48.3104 44.0454 47.4064 44.9819 46.0444 44.9819C45.358 44.9819 44.8771 44.7195 44.4533 44.3424L44.545 45.0154V47.0388H43.9842V39.2696H44.3502L44.4993 39.9434Z" fill="#646C76"/>
<path opacity="0.800003" d="M52.1574 39.7728C52.0204 39.7152 51.7568 39.6696 51.425 39.6696C50.83 39.6696 50.3605 40.0467 50.0402 40.3889V44.868H49.4794V39.2697H49.8454L49.9945 39.9548C50.2464 39.6582 50.7611 39.1899 51.4821 39.1899C51.9516 39.1899 52.2263 39.2918 52.2263 39.2918L52.1574 39.7728Z" fill="#646C76"/>
<path opacity="0.800003" d="M54.8139 39.589C53.5888 39.589 53.0854 40.6858 53.0854 41.7826H56.462C56.462 40.6858 56.0728 39.589 54.8139 39.589ZM53.0854 42.2285C53.0854 43.8506 53.8981 44.5364 55.0311 44.5364C55.8324 44.5364 56.4963 44.1365 56.8281 43.9072L57.0114 44.3185C56.5305 44.6162 55.8324 44.9816 54.9969 44.9816C53.5435 44.9816 52.536 43.988 52.536 42.022C52.536 40.2172 53.3944 39.1545 54.8481 39.1545C56.3704 39.1545 57.0114 40.423 57.0114 41.8286V42.2285H53.0854Z" fill="#646C76"/>
<path opacity="0.800003" d="M61.7278 44.8679V41.4514C61.7278 40.2748 61.3843 39.6121 60.3084 39.6121C59.6216 39.6121 59.1183 40.012 58.7405 40.3888V44.8679H58.1797V39.2695H58.5457L58.6948 39.9433C59.0034 39.6352 59.5988 39.1549 60.4461 39.1549C61.7054 39.1549 62.3004 39.9208 62.3004 41.2919V44.8679H61.7278Z" fill="#646C76"/>
<path opacity="0.800003" d="M67.2229 40.0463C66.9368 39.8405 66.4102 39.5891 65.6889 39.5891C64.4642 39.5891 63.9262 40.5827 63.9262 42.0456C63.9262 43.4625 64.3839 44.5472 65.6204 44.5472C66.1812 44.5472 66.6731 44.3079 67.2229 43.725V40.0463ZM67.28 44.1591C66.9136 44.6281 66.2265 44.9817 65.5975 44.9817C64.2587 44.9817 63.354 43.9536 63.354 42.0456C63.354 40.4121 64.1096 39.1547 65.6771 39.1547C66.4102 39.1547 66.9247 39.3947 67.2575 39.6008L67.2229 38.6978V36.9849H67.7837V44.8677H67.4055L67.28 44.1591Z" fill="#646C76"/>
<path opacity="0.800003" d="M71.1722 39.589C69.9475 39.589 69.4445 40.6858 69.4445 41.7826H72.8207C72.8207 40.6858 72.4315 39.589 71.1722 39.589ZM69.4445 42.2285C69.4445 43.8506 70.2568 44.5364 71.3898 44.5364C72.1907 44.5364 72.8549 44.1365 73.1867 43.9072L73.3701 44.3185C72.8892 44.6162 72.1907 44.9816 71.3556 44.9816C69.9018 44.9816 68.8947 43.988 68.8947 42.022C68.8947 40.2172 69.7527 39.1545 71.2064 39.1545C72.729 39.1545 73.3701 40.423 73.3701 41.8286V42.2285H69.4445Z" fill="#646C76"/>
<path d="M80.7649 44.4792C80.4103 44.6964 79.7582 44.9817 78.9566 44.9817C77.6516 44.9817 76.61 44.2047 76.61 42.0687C76.61 40.1375 77.6516 39.1547 78.9337 39.1547C79.5177 39.1547 80.2269 39.2807 80.7189 39.5891L80.5362 40.0118C80.0785 39.7376 79.552 39.6233 78.9337 39.6233C77.8122 39.6233 77.1483 40.572 77.1483 42.0687C77.1483 43.7823 77.835 44.5248 78.9566 44.5248C79.6893 44.5248 80.2387 44.2965 80.6393 44.0341L80.7649 44.4792Z" fill="#646C76"/>
<path d="M84.4173 39.7728C84.28 39.7152 84.0167 39.6696 83.6846 39.6696C83.0895 39.6696 82.6208 40.0467 82.2997 40.3889V44.868H81.7389V39.2697H82.1053L82.2541 39.9548C82.5059 39.6582 83.0207 39.1899 83.742 39.1899C84.2111 39.1899 84.4858 39.2918 84.4858 39.2918L84.4173 39.7728Z" fill="#646C76"/>
<path d="M87.0732 39.589C85.8485 39.589 85.3451 40.6858 85.3451 41.7826H88.7217C88.7217 40.6858 88.3321 39.589 87.0732 39.589ZM85.3451 42.2285C85.3451 43.8506 86.1577 44.5364 87.2904 44.5364C88.0917 44.5364 88.7559 44.1365 89.0877 43.9072L89.2707 44.3185C88.7898 44.6162 88.0917 44.9816 87.2562 44.9816C85.8024 44.9816 84.7957 43.988 84.7957 42.022C84.7957 40.2172 85.6537 39.1545 87.1074 39.1545C88.6296 39.1545 89.2707 40.423 89.2707 41.8286V42.2285H85.3451Z" fill="#646C76"/>
<path d="M94.4108 44.4792C94.0562 44.6964 93.4034 44.9817 92.6018 44.9817C91.2979 44.9817 90.2559 44.2047 90.2559 42.0687C90.2559 40.1375 91.2979 39.1547 92.5793 39.1547C93.1633 39.1547 93.8729 39.2807 94.3648 39.5891L94.1818 40.0118C93.7238 39.7376 93.1972 39.6233 92.5793 39.6233C91.4581 39.6233 90.7939 40.572 90.7939 42.0687C90.7939 43.7823 91.4806 44.5248 92.6018 44.5248C93.3349 44.5248 93.8846 44.2965 94.2849 44.0341L94.4108 44.4792Z" fill="#646C76"/>
<path d="M97.4908 39.589C96.2661 39.589 95.7623 40.6858 95.7623 41.7826H99.1389C99.1389 40.6858 98.7494 39.589 97.4908 39.589ZM95.7623 42.2285C95.7623 43.8506 96.5753 44.5364 97.708 44.5364C98.5089 44.5364 99.1728 44.1365 99.5049 43.9072L99.6883 44.3185C99.2071 44.6162 98.5089 44.9816 97.6734 44.9816C96.22 44.9816 95.213 43.988 95.213 42.022C95.213 40.2172 96.0709 39.1545 97.525 39.1545C99.0469 39.1545 99.6883 40.423 99.6883 41.8286V42.2285H95.7623Z" fill="#646C76"/>
<path d="M53.7838 21.7329C53.2849 21.977 52.173 22.0986 50.8303 22.0986H49.8228V15.8962H50.6182C51.917 15.8962 53.0372 15.9991 53.5987 16.2053C54.1595 16.4115 54.5944 16.7665 54.903 17.2676C55.2126 17.7701 55.3673 18.3302 55.3673 18.9484C55.3673 19.5772 55.2289 20.1377 54.9504 20.6295C54.6715 21.1216 54.2827 21.4891 53.7838 21.7329ZM61.2386 32.9846C60.8113 32.3671 60.2443 31.4475 59.5368 30.2229C58.4124 28.2779 57.5402 26.9155 56.9199 26.1333C56.2996 25.3528 55.6648 24.7353 55.0158 24.2812C56.1204 23.8295 57.1587 23.146 57.7496 22.2312C58.3412 21.3143 58.6366 20.2299 58.6366 18.975C58.6366 17.1339 58.0339 15.6728 56.8265 14.5929C55.6205 13.5137 53.7983 12.9725 51.7443 12.9725H46.6559V34.5276H49.8228V25.1463H50.0488C50.9995 25.1463 51.6762 25.262 52.0796 25.4934C52.4816 25.7247 52.9334 26.1019 53.433 26.6257C53.9329 27.1486 54.4826 27.8528 55.0822 28.7393L56.0557 30.4221L56.9559 31.9962L57.5223 32.8447C57.6088 32.969 57.6672 33.0561 57.6966 33.1079L58.5823 34.5276H62.3142L61.2386 32.9846Z" fill="#646C76"/>
<path d="M64.9501 12.9726H75.7819V16.0151H68.1575V21.4498H75.7819V24.483H68.1575V34.5277H64.9501V12.9726Z" fill="#646C76"/>
<path d="M37.8073 29.5945C36.3515 31.1734 34.5352 31.9639 32.3577 31.9639C30.1906 31.9639 28.3854 31.1883 26.9438 29.6404C25.5014 28.0926 24.7808 26.1518 24.7808 23.8193C24.7808 21.4153 25.4997 19.4386 26.9368 17.8901C28.3743 16.3426 30.2093 15.568 32.4418 15.568C34.5629 15.568 36.3515 16.3508 37.8073 17.9128C39.2635 19.478 39.9917 21.405 39.9917 23.6963C39.9917 26.0492 39.2635 28.0145 37.8073 29.5945ZM40.1664 15.8263C38.0793 13.7183 35.4662 12.6639 32.328 12.6639C29.1894 12.6639 26.5936 13.7183 24.5407 15.8263C22.4871 17.9363 21.4606 20.601 21.4606 23.8193C21.4606 26.9578 22.4798 29.5676 24.5189 31.651C26.5573 33.7335 29.1074 34.775 32.1685 34.775C35.3745 34.775 38.0305 33.7335 40.1377 31.651C42.2443 29.5676 43.2978 26.9357 43.2978 23.7592C43.2978 20.5782 42.254 17.9363 40.1664 15.8263Z" fill="#646C76"/>
<path d="M95.0456 29.5945C93.589 31.1734 91.7727 31.9639 89.5956 31.9639C87.4285 31.9639 85.6236 31.1883 84.1812 29.6404C82.7393 28.0926 82.019 26.1518 82.019 23.8193C82.019 21.4153 82.7372 19.4386 84.1743 17.8901C85.6122 16.3426 87.4471 15.568 89.6797 15.568C91.8004 15.568 93.589 16.3508 95.0456 17.9128C96.5014 19.478 97.2296 21.405 97.2296 23.6963C97.2296 26.0492 96.5014 28.0145 95.0456 29.5945ZM97.404 15.8263C95.3164 13.7183 92.7037 12.6639 89.5655 12.6639C86.4272 12.6639 83.8311 13.7183 81.7782 15.8263C79.7245 17.9363 78.6981 20.601 78.6981 23.8193C78.6981 26.9578 79.7173 29.5676 81.7567 31.651C83.7951 33.7335 86.3456 34.775 89.4056 34.775C92.612 34.775 95.2684 33.7335 97.3749 31.651C99.4819 29.5676 100.535 26.9357 100.535 23.7592C100.535 20.5782 99.4915 17.9363 97.404 15.8263Z" fill="#646C76"/>
<path d="M18.4845 29.5945C16.8291 31.1734 14.7654 31.9639 12.2914 31.9639C9.82815 31.9639 7.77729 31.1883 6.13846 29.6404C4.49963 28.0926 3.68074 26.1518 3.68074 23.8193C3.68074 21.4153 4.49721 19.4386 6.13085 17.8901C7.76449 16.3426 9.84891 15.568 12.3869 15.568C14.7969 15.568 16.8291 16.3509 18.4845 17.9129C18.5028 17.9315 18.5181 17.9481 18.5364 17.9657V17.7865V14.7788V14.4687C15.9289 13.2859 13.5594 12.694 11.4272 12.694C8.33532 12.694 5.73541 13.7642 3.62711 15.9047C1.51881 18.0437 0.465012 20.6822 0.465012 23.8193C0.465012 25.7943 0.925489 27.6302 1.8461 29.3269C2.76705 31.026 4.01701 32.358 5.59703 33.3249C7.17635 34.2919 9.10059 34.775 11.3687 34.775C14.1603 34.775 16.6222 34.1582 18.7543 32.9233V32.617V29.5282V29.3345C18.746 29.34 18.737 29.3441 18.7281 29.3497C18.6488 29.4312 18.5679 29.5151 18.4845 29.5945Z" fill="#646C76"/>
<path d="M111.393 8.10938C110.65 7.35929 109.72 6.9839 108.604 6.9839C107.487 6.9839 106.564 7.35929 105.834 8.10938C105.102 8.86017 104.737 9.80814 104.737 10.9533C104.737 12.0698 105.1 12.9974 105.825 13.7392C106.551 14.481 107.458 14.8516 108.548 14.8516C109.688 14.8516 110.633 14.481 111.383 13.7392C112.133 12.9974 112.507 12.0622 112.507 10.9312C112.507 9.80089 112.136 8.86017 111.393 8.10938Z" fill="#646C76"/>
</svg>
