<svg width="136" height="32" viewBox="0 0 136 32" fill="none" xmlns="http://www.w3.org/2000/svg">
<g clip-path="url(#clip0)">
<path d="M120.366 12.8076C123.187 12.8076 124.151 15.1062 124.525 16.8288H116.212C116.656 14.4784 118.067 12.8076 120.366 12.8076ZM121.147 24.1857C118.496 24.1857 116.728 22.4692 116.215 20.0412H128.287C128.287 20.0412 128.383 19.4346 128.383 18.6902C128.383 13.4353 125.731 9.59769 120.366 9.59769C115.427 9.59769 112.244 13.6859 112.244 18.5226C112.244 23.3596 115.022 27.4478 120.93 27.4478C125.494 27.4478 128.411 24.5857 128.411 24.5857L126.466 21.9829C126.466 21.9829 124.203 24.1857 121.147 24.1857ZM131.28 27.0664H135.294V4.02828H131.28V27.0664ZM108.219 3.67017C109.903 3.67017 111.836 4.11511 111.836 4.11511V7.52499C110.447 7.00687 106.581 5.92499 106.581 9.21275V9.94758H111.836V13.2537H106.581V27.0664H102.567V8.83511C102.567 3.82946 106.535 3.67017 108.219 3.67017ZM96.8303 3.67017C98.5146 3.67017 100.448 4.11511 100.448 4.11511V7.52499C99.0581 7.00687 95.1925 5.92499 95.1925 9.21275V9.94758H100.448V13.2537H95.1925V27.0664H91.1788V13.2537H88.2125V9.94758H91.1788V8.83511C91.1788 3.82946 95.1463 3.67017 96.8303 3.67017ZM81.8598 9.94758H85.8736V27.0664H81.8598V24.7222C80.8918 25.8652 79.0918 27.416 76.4475 27.416C72.2605 27.416 70.1367 24.4923 70.1367 21.1304C70.1367 17.7683 70.1367 9.94758 70.1367 9.94758H74.1503C74.1503 9.94758 74.1503 18.1424 74.1503 19.9859C74.1503 21.8297 75.0496 23.752 77.9096 23.752C79.7826 23.752 81.0701 22.5648 81.8598 21.0873V9.94758ZM56.1772 23.3386H51.1209V8.5424H56.1772C60.2628 8.5424 63.2405 11.8549 63.2405 15.9408C63.2405 20.0266 60.2628 23.3386 56.1772 23.3386ZM56.1772 4.81464H47.0438V27.0666H56.1772C62.3216 27.0666 67.3028 22.0852 67.3028 15.9408C67.3028 9.79581 62.3216 4.81464 56.1772 4.81464Z" fill="#646C76"/>
<path d="M0 7.97035V23.9108C2.20094 23.9108 3.98518 20.3424 3.98518 15.9405C3.98518 11.5388 2.20094 7.97035 0 7.97035ZM7.58141 4.81459V27.0666C11.9833 27.0666 15.5518 22.0852 15.5518 15.9405C15.5518 9.79576 11.9833 4.81459 7.58141 4.81459ZM35.0885 15.9405C35.0885 24.7442 27.9518 31.8809 19.148 31.8809V0C27.9518 0 35.0885 7.13694 35.0885 15.9405Z" fill="#646C76"/>
</g>
<defs>
<clipPath id="clip0">
<rect width="135.467" height="32" fill="white"/>
</clipPath>
</defs>
</svg>
