<svg width="208" height="18" viewBox="0 0 208 18" fill="none" xmlns="http://www.w3.org/2000/svg">
<path d="M139.18 17.7805C138.296 17.5929 137.298 17.2929 136.914 17.1054C135.608 16.3928 133.918 14.7051 133.189 13.28C132.497 12.0048 132.421 11.5548 132.421 9.04199C132.421 6.67922 132.536 6.00415 133.073 4.91652C133.957 3.19133 135.416 1.72867 137.259 0.791062C138.565 0.115986 139.103 0.0409781 141.33 0.0409781C144.095 0.0409781 145.516 0.491029 147.36 1.9912L148.205 2.66627L147.513 3.37885L146.822 4.09143L145.939 3.41636C142.598 0.941079 138.143 1.35363 135.762 4.35396C134.571 5.85413 134.149 7.46681 134.302 9.60455C134.456 11.7048 135.301 13.3175 136.875 14.6301C139.41 16.7303 142.713 16.7679 145.67 14.7051C146.937 13.8425 147.629 13.8425 147.974 14.6676C148.358 15.6427 144.748 17.7055 142.175 17.9305C141.407 18.0805 140.025 17.968 139.18 17.7805ZM3.65128 17.4054C2.8448 17.1054 1.65427 16.5428 1.00139 16.0928C-0.381157 15.2302 -0.381157 15.2677 1.30863 13.505L2.15352 12.6049L3.61288 13.505C4.80341 14.2176 5.45628 14.4051 6.99245 14.4801C8.64383 14.5551 8.98947 14.5176 9.52713 13.9925C10.9481 12.6049 10.0648 11.6673 6.30117 10.6172C2.99841 9.67956 1.73107 8.92947 1.11661 7.69183C0.540544 6.4917 0.50214 4.09143 1.0782 3.04131C2.30714 0.753558 5.34107 -0.446577 8.56702 0.153491C10.372 0.491028 13.2907 1.72867 13.2907 2.21622C13.2907 2.44125 12.369 3.8289 11.5625 4.80401C11.4473 4.91652 10.7561 4.729 9.94957 4.35396C6.99245 2.9288 4.38096 3.26634 4.38096 5.06654C4.38096 5.89163 5.18745 6.37919 8.06777 7.24178C12.9451 8.70445 13.982 9.75457 13.8284 12.9049C13.7132 15.0802 12.9067 16.3928 11.1017 17.2554C9.48872 18.0055 5.53309 18.0805 3.65128 17.4054ZM34.029 17.7805C34.029 17.7055 36.6405 15.7177 39.7896 13.3925C42.9388 11.0297 45.5503 9.04199 45.5503 8.96698C45.5503 8.89197 42.9388 6.90425 39.7512 4.57899L33.9906 0.378516L37.0245 0.303508L40.0585 0.228499L44.1677 3.26634L48.277 6.30418L48.3538 8.77946C48.3922 10.1296 48.3538 11.4423 48.2002 11.6298C48.0849 11.8548 46.1647 13.355 43.9757 15.0052L39.9817 17.968H36.9861C35.3732 17.9305 34.029 17.8555 34.029 17.7805ZM100.507 17.668C99.2777 17.2929 97.8952 16.3553 97.2039 15.4552C95.8982 13.73 95.6677 12.3799 95.6677 6.07915V0.190995H97.6648H99.7002V6.04165C99.7002 12.3424 99.777 12.7924 101.236 13.805C101.812 14.2176 102.465 14.4051 103.617 14.4051C104.962 14.4051 105.307 14.2926 106.075 13.5425C107.266 12.3799 107.458 11.2547 107.458 5.21656V0.228499H109.34H111.221L111.145 6.64172L111.068 13.0549L110.185 14.5926C109.57 15.6427 108.879 16.3928 107.919 16.9554C106.69 17.7055 106.267 17.7805 103.925 17.8555C102.465 17.8555 100.929 17.7805 100.507 17.668ZM21.3556 10.7297V3.86641H18.6289H15.9022V2.0287V0.190995H23.2374H30.5726V2.0287V3.86641H27.8459H25.1192V10.7672V17.6304H23.2374H21.3556V10.7297ZM53.0391 8.92947V0.190995H57.7244C63.4082 0.190995 64.8676 0.528533 66.3653 2.14121C68.5544 4.50398 68.516 7.95436 66.3269 10.0171C65.7509 10.5797 65.0212 11.1422 64.714 11.2922C64.2147 11.5548 64.2915 11.7798 66.0581 14.2551C67.095 15.7177 68.0167 17.0679 68.1319 17.2554C68.2855 17.5179 67.7863 17.5929 66.0581 17.5929H63.7923L61.9873 14.9301L60.1823 12.2673H58.6461H57.1099V14.9301V17.6304H55.1129H53.1159L53.0391 8.92947ZM63.293 7.95436C63.7538 7.50431 63.9843 6.94175 63.9843 6.30418C63.9843 4.39147 62.5249 3.60388 58.8765 3.60388H57.0715V6.15416V8.62944H59.8366C62.3713 8.62944 62.6401 8.59194 63.293 7.95436ZM75.8128 10.7297V3.86641H73.0861H70.3594V2.0287V0.190995H77.8482H85.337L85.2602 1.95369L85.1834 3.71639L82.5335 3.7914L79.8836 3.86641V10.7297V17.6304H77.8482H75.8512L75.8128 10.7297ZM115.254 8.89197V0.153491L120.093 0.266003C124.471 0.341012 125.047 0.41602 126.314 1.01609C129.655 2.62877 130.616 7.27929 128.234 10.1296C126.967 11.6298 125.162 12.3424 122.013 12.5299L119.325 12.6799V15.1552V17.6304H117.328H115.292V8.89197H115.254ZM124.432 8.44192C125.431 7.72934 125.815 6.60421 125.469 5.6291C125.009 4.31646 123.895 3.7914 121.475 3.64138L119.286 3.49136V6.37919V9.26701L121.475 9.11699C123.05 9.04199 123.856 8.85447 124.432 8.44192ZM151.853 8.92947V0.190995H152.852H153.85V4.12894V8.06688H159.035H164.219V4.12894V0.190995H165.218H166.216V8.89197V17.6304H165.218H164.219V13.6925V9.75457H159.035H153.85V13.6925V17.6304H152.852H151.853V8.92947ZM171.708 8.92947V0.190995H172.707H173.705V8.89197V17.6304H172.707H171.708V8.92947ZM178.928 8.92947V0.190995H179.927H180.925V8.06688V15.9428H185.956H190.987V16.7679V17.6304H184.919H178.851V8.92947H178.928ZM194.751 8.92947V0.190995H201.241H207.731V1.01609V1.87868L202.316 1.95369L196.901 2.0287L196.824 5.06654L196.748 8.10438H201.663H206.579V8.96698V9.75457H201.663H196.748V12.8299V15.9053H202.393H208V16.7679V17.6304H201.395H194.789L194.751 8.92947ZM85.9515 9.97959L86.0283 8.21689H89.1774H92.3266L92.4034 9.97959L92.4802 11.7423H89.139H85.7979L85.9515 9.97959Z" fill="#646C76"/>
</svg>
