<svg width="264" height="32" viewBox="0 0 264 32" fill="none" xmlns="http://www.w3.org/2000/svg">
<path d="M48.1995 9.81194C49.2997 9.81194 50.2845 9.97626 51.154 10.3049C52.0235 10.6335 52.7644 11.1049 53.3766 11.7189C53.9888 12.3329 54.459 13.0767 54.7873 13.9502C55.1156 14.8237 55.2798 15.8053 55.2798 16.895C55.2798 17.9328 55.1422 18.8841 54.8672 19.749C54.5921 20.6138 54.1973 21.3576 53.6827 21.9802C53.1681 22.6029 52.5248 23.0872 51.7529 23.4332C50.981 23.7791 50.1071 23.9521 49.1311 23.9521C48.4745 23.9521 47.8712 23.8742 47.3211 23.7186C46.771 23.5629 46.3185 23.3899 45.9636 23.1997V28.4665H42.7428V10.5384L43.1549 10.4357C43.7284 10.3001 44.3985 10.17 45.165 10.0454C46.1233 9.88978 47.1348 9.81194 48.1995 9.81194ZM175.606 9.45839C177.543 9.45839 179.053 10.0756 180.138 11.31C181.223 12.5444 181.765 14.3868 181.765 16.8372C181.765 17.0215 181.761 17.2288 181.752 17.4591C181.743 17.6894 181.729 17.8966 181.711 18.0809H172.433L172.474 18.4581C172.615 19.4379 173 20.2104 173.63 20.7754C174.338 21.411 175.364 21.7288 176.709 21.7288C177.498 21.7288 178.22 21.6551 178.874 21.5078C179.528 21.3604 180.044 21.2038 180.42 21.0379L180.851 23.7739L180.704 23.8439C180.544 23.9147 180.346 23.9881 180.111 24.0641C179.797 24.1654 179.439 24.2576 179.035 24.3405C178.632 24.4234 178.197 24.4925 177.731 24.5477C177.265 24.603 176.79 24.6306 176.306 24.6306C175.069 24.6306 173.993 24.4418 173.078 24.0641C172.164 23.6864 171.411 23.1613 170.819 22.4888C170.228 21.8164 169.788 21.0241 169.502 20.1121C169.215 19.2001 169.071 18.2006 169.071 17.1136C169.071 15.8423 169.255 14.7277 169.623 13.7696C169.99 12.8116 170.479 12.0147 171.088 11.3791C171.698 10.7435 172.397 10.2644 173.186 9.94203C173.975 9.6196 174.782 9.45839 175.606 9.45839ZM244.454 9.45839C246.391 9.45839 247.901 10.0756 248.986 11.31C250.071 12.5444 250.613 14.3868 250.613 16.8372C250.613 17.0215 250.609 17.2288 250.6 17.4591C250.591 17.6894 250.577 17.8966 250.559 18.0809H241.281L241.322 18.4581C241.463 19.4379 241.848 20.2104 242.478 20.7754C243.186 21.411 244.212 21.7288 245.557 21.7288C246.346 21.7288 247.068 21.6551 247.722 21.5078C248.376 21.3604 248.892 21.2038 249.268 21.0379L249.699 23.7739L249.552 23.8439C249.392 23.9147 249.194 23.9881 248.959 24.0641C248.645 24.1654 248.287 24.2576 247.883 24.3405C247.48 24.4234 247.045 24.4925 246.579 24.5477C246.113 24.603 245.638 24.6306 245.154 24.6306C243.917 24.6306 242.841 24.4418 241.926 24.0641C241.012 23.6864 240.259 23.1613 239.667 22.4888C239.076 21.8164 238.636 21.0241 238.35 20.1121C238.063 19.2001 237.919 18.2006 237.919 17.1136C237.919 15.8423 238.103 14.7277 238.471 13.7696C238.838 12.8116 239.327 12.0147 239.936 11.3791C240.546 10.7435 241.245 10.2644 242.034 9.94203C242.823 9.6196 243.63 9.45839 244.454 9.45839ZM258.574 9.45839C259.398 9.45839 260.187 9.5367 260.94 9.6933C261.693 9.84991 262.258 10.0019 262.635 10.1493L262.043 12.8576L261.816 12.7598C261.498 12.6316 261.116 12.5122 260.671 12.4016C260.116 12.2635 259.47 12.1944 258.735 12.1944C258.072 12.1944 257.534 12.3095 257.121 12.5398C256.709 12.7701 256.503 13.1248 256.503 13.6038C256.503 13.8433 256.543 14.0552 256.624 14.2394C256.705 14.4237 256.844 14.5941 257.041 14.7507C257.238 14.9073 257.498 15.0639 257.821 15.2205C258.143 15.3771 258.538 15.5383 259.004 15.7042C259.775 15.9989 260.429 16.2891 260.967 16.5747C261.505 16.8603 261.949 17.1827 262.298 17.542C262.648 17.9012 262.904 18.3112 263.065 18.7718C263.226 19.2324 263.307 19.7851 263.307 20.4299C263.307 21.8118 262.809 22.8573 261.814 23.5666C260.819 24.276 259.398 24.6306 257.552 24.6306C256.315 24.6306 255.32 24.5247 254.566 24.3128C253.813 24.1009 253.285 23.9305 252.98 23.8016L253.545 21.0103L253.925 21.1606C254.324 21.3091 254.775 21.4525 255.279 21.5907C255.952 21.7749 256.718 21.867 257.579 21.867C258.439 21.867 259.067 21.7611 259.461 21.5492C259.856 21.3373 260.053 20.9735 260.053 20.4576C260.053 19.9786 259.842 19.5824 259.421 19.2692C258.999 18.956 258.305 18.6152 257.337 18.2467C256.745 18.0256 256.203 17.7907 255.709 17.542C255.216 17.2932 254.791 17.0031 254.432 16.6714C254.073 16.3398 253.791 15.9391 253.585 15.4693C253.379 14.9994 253.276 14.4237 253.276 13.742C253.276 12.4155 253.751 11.3699 254.701 10.6053C255.651 9.84069 256.942 9.45839 258.574 9.45839ZM215.275 9.81766V17.39L215.281 17.841C215.321 19.1543 215.538 20.1094 215.934 20.7063C216.373 21.3696 217.139 21.7012 218.233 21.7012C218.627 21.7012 219.044 21.6828 219.484 21.6459C219.923 21.6091 220.25 21.563 220.465 21.5078V9.81766H223.719V23.8292L223.39 23.9125C222.815 24.0519 222.109 24.1946 221.272 24.3405C220.268 24.5155 219.165 24.603 217.964 24.603C216.835 24.603 215.889 24.4372 215.127 24.1056C214.365 23.7739 213.755 23.3133 213.298 22.7237C212.841 22.1342 212.514 21.4295 212.316 20.6096C212.119 19.7897 212.021 18.8915 212.021 17.9151V9.81766H215.275ZM204.033 5.45115V9.81766H209.035V12.6089H204.033V18.4954L204.04 18.87C204.075 19.8363 204.252 20.5405 204.571 20.9827C204.93 21.4801 205.539 21.7288 206.4 21.7288C206.991 21.7288 207.516 21.6644 207.973 21.5354C208.43 21.4064 208.793 21.2867 209.062 21.1761L209.6 23.8292L209.36 23.9292C209.022 24.0634 208.609 24.2004 208.121 24.3405C207.511 24.5155 206.794 24.603 205.969 24.603C204.965 24.603 204.127 24.4648 203.455 24.1885C202.783 23.9121 202.249 23.5114 201.855 22.9863C201.46 22.4612 201.182 21.8256 201.021 21.0794C200.86 20.3332 200.779 19.4811 200.779 18.5231V6.00387L204.033 5.45115ZM233.347 9.51367C233.562 9.51367 233.813 9.52748 234.1 9.55512C234.387 9.58276 234.674 9.6196 234.961 9.66567C235.248 9.71173 235.526 9.767 235.795 9.83148C236.064 9.89597 236.279 9.95584 236.44 10.0111L235.875 12.83L235.702 12.7742C235.453 12.699 235.139 12.6209 234.759 12.5398C234.284 12.4385 233.733 12.3878 233.105 12.3878C232.747 12.3878 232.366 12.4247 231.962 12.4984C231.559 12.5721 231.277 12.6366 231.115 12.6918V24.2714H227.861V10.5086L228.256 10.3665C228.809 10.1793 229.461 10.001 230.214 9.83148C231.155 9.61961 232.2 9.51367 233.347 9.51367ZM190.99 9.51367C192.137 9.51367 193.096 9.67488 193.867 9.9973C194.638 10.3197 195.252 10.7711 195.71 11.3515C196.167 11.9318 196.489 12.6319 196.678 13.4518C196.866 14.2717 196.96 15.1699 196.96 16.1463V24.2714H193.706V16.6714L193.7 16.221C193.684 15.6388 193.637 15.1303 193.558 14.6954C193.459 14.1519 193.298 13.7098 193.074 13.3689C192.85 13.0281 192.545 12.7793 192.16 12.6227C191.774 12.4661 191.303 12.3878 190.748 12.3878C190.335 12.3878 189.905 12.4155 189.457 12.4707C189.008 12.526 188.677 12.5721 188.462 12.6089V24.2714H185.208V10.2875L185.537 10.1961C186.112 10.0452 186.818 9.90057 187.655 9.76239C188.659 9.59657 189.77 9.51367 190.99 9.51367ZM157.453 9.81766L157.607 10.4369C157.767 11.0673 157.944 11.7315 158.139 12.4293C158.399 13.3597 158.677 14.2901 158.973 15.2205C159.269 16.1509 159.573 17.0537 159.887 17.9289C160.201 18.804 160.492 19.5917 160.761 20.2918C161.03 19.5917 161.317 18.804 161.622 17.9289C161.926 17.0537 162.227 16.1509 162.523 15.2205C162.818 14.2901 163.101 13.3597 163.37 12.4293C163.639 11.4989 163.872 10.6283 164.069 9.81766H167.431L167.038 11.2121C166.372 13.5113 165.647 15.6857 164.862 17.7354C163.921 20.195 163.002 22.3737 162.106 24.2714H159.309L158.972 23.5466C158.182 21.8246 157.376 19.8876 156.552 17.7354C155.611 15.2758 154.755 12.6366 153.984 9.81766H157.453ZM141.627 9.76005C142.444 9.76005 143.224 9.83356 143.97 9.98058C144.715 10.1276 145.274 10.2703 145.647 10.4087L145.061 12.9513L144.836 12.8595C144.521 12.7391 144.144 12.627 143.704 12.5232C143.153 12.3935 142.515 12.3286 141.787 12.3286C141.131 12.3286 140.598 12.4367 140.19 12.6529C139.782 12.8692 139.578 13.2021 139.578 13.6518C139.578 13.8767 139.618 14.0756 139.698 14.2486C139.777 14.4215 139.915 14.5815 140.11 14.7286C140.305 14.8756 140.563 15.0226 140.882 15.1696C141.201 15.3166 141.592 15.468 142.053 15.6237C142.816 15.9004 143.464 16.1728 143.996 16.4409C144.529 16.709 144.968 17.0117 145.314 17.349C145.66 17.6863 145.913 18.0712 146.073 18.5036C146.232 18.936 146.312 19.4549 146.312 20.0603C146.312 21.3576 145.82 22.3391 144.835 23.0051C143.85 23.671 142.444 24.004 140.616 24.004C139.391 24.004 138.407 23.9045 137.661 23.7056C136.916 23.5067 136.393 23.3467 136.091 23.2256L136.65 20.6051L137.027 20.7462C137.421 20.8857 137.868 21.0203 138.367 21.15C139.032 21.323 139.791 21.4094 140.643 21.4094C141.494 21.4094 142.115 21.31 142.506 21.1111C142.896 20.9122 143.091 20.5705 143.091 20.0862C143.091 19.6365 142.883 19.2646 142.466 18.9706C142.049 18.6765 141.361 18.3566 140.403 18.0106C139.817 17.8031 139.281 17.5825 138.793 17.349C138.305 17.1155 137.883 16.8431 137.528 16.5317C137.173 16.2204 136.894 15.8442 136.69 15.4031C136.486 14.9621 136.384 14.4215 136.384 13.7816C136.384 12.5362 136.854 11.5546 137.794 10.8368C138.735 10.119 140.013 9.76005 141.627 9.76005ZM83.7872 5.998V10.0973H88.7381V12.7178H83.7872V18.2441L83.7938 18.5958C83.8289 19.503 84.0041 20.1641 84.3196 20.5792C84.6745 21.0462 85.2778 21.2797 86.1296 21.2797C86.7152 21.2797 87.2342 21.2192 87.6867 21.0981C88.1392 20.977 88.4986 20.8646 88.7647 20.7608L89.2971 23.2516L89.0597 23.3455C88.7246 23.4714 88.3158 23.6001 87.8331 23.7315C87.2298 23.8959 86.52 23.978 85.7037 23.978C84.71 23.978 83.8804 23.8483 83.215 23.5888C82.5495 23.3294 82.0216 22.9532 81.6312 22.4602C81.2408 21.9673 80.9658 21.3705 80.8061 20.67C80.6464 19.9695 80.5665 19.1695 80.5665 18.2701V6.5169L83.7872 5.998ZM124.699 10.0973V17.2063L124.705 17.6297C124.744 18.8627 124.959 19.7593 125.351 20.3197C125.785 20.9424 126.544 21.2538 127.626 21.2538C128.017 21.2538 128.429 21.2365 128.864 21.2019C129.299 21.1673 129.623 21.124 129.836 21.0722V10.0973H133.056V23.2516L132.73 23.3298C132.161 23.4607 131.462 23.5946 130.634 23.7315C129.641 23.8959 128.549 23.978 127.36 23.978C126.242 23.978 125.306 23.8223 124.552 23.511C123.798 23.1997 123.195 22.7672 122.742 22.2137C122.29 21.6602 121.966 20.9986 121.771 20.2289C121.575 19.4592 121.478 18.616 121.478 17.6993V10.0973H124.699ZM71.1439 9.76005C72.2086 9.76005 73.1047 9.88978 73.8322 10.1492C74.5598 10.4087 75.1409 10.7719 75.5757 11.2389C76.0105 11.7059 76.321 12.2724 76.5073 12.9383C76.6936 13.6043 76.7868 14.3351 76.7868 15.1307V23.3553L76.5584 23.4011C76.0706 23.4954 75.397 23.6055 74.5376 23.7315C73.535 23.8786 72.4038 23.9521 71.1439 23.9521C70.3098 23.9521 69.5468 23.8742 68.8547 23.7186C68.1627 23.5629 67.5727 23.3121 67.0847 22.9662C66.5967 22.6202 66.2152 22.1705 65.9401 21.617C65.6651 21.0635 65.5275 20.3803 65.5275 19.5673C65.5275 18.789 65.6828 18.1317 65.9934 17.5955C66.3039 17.0593 66.7253 16.6226 67.2577 16.2853C67.79 15.948 68.4067 15.7058 69.1076 15.5588C69.8085 15.4118 70.5405 15.3383 71.3036 15.3383C71.6585 15.3383 72.0311 15.3599 72.4215 15.4031C72.8119 15.4464 73.2289 15.5199 73.6725 15.6237V15.1048L73.6578 14.7473C73.638 14.5128 73.5986 14.286 73.5395 14.067C73.4507 13.7383 73.2955 13.4486 73.0736 13.1978C72.8518 12.947 72.559 12.7524 72.1953 12.614C71.8315 12.4756 71.3746 12.4065 70.8245 12.4065C70.0792 12.4065 69.396 12.4584 68.7749 12.5621C68.1538 12.6659 67.6481 12.787 67.2577 12.9254L66.8584 10.3827L67.078 10.3135C67.4699 10.1982 67.9912 10.0829 68.6418 9.96761C69.4226 9.82924 70.2566 9.76005 71.1439 9.76005ZM96.4839 9.76005C97.5486 9.76005 98.4447 9.88978 99.1722 10.1492C99.8998 10.4087 100.481 10.7719 100.916 11.2389C101.35 11.7059 101.661 12.2724 101.847 12.9383C102.034 13.6043 102.127 14.3351 102.127 15.1307V23.3553L101.898 23.4011C101.411 23.4954 100.737 23.6055 99.8776 23.7315C98.875 23.8786 97.7438 23.9521 96.4839 23.9521C95.6498 23.9521 94.8868 23.8742 94.1947 23.7186C93.5027 23.5629 92.9127 23.3121 92.4247 22.9662C91.9367 22.6202 91.5552 22.1705 91.2801 21.617C91.0051 21.0635 90.8675 20.3803 90.8675 19.5673C90.8675 18.789 91.0228 18.1317 91.3333 17.5955C91.6439 17.0593 92.0653 16.6226 92.5977 16.2853C93.13 15.948 93.7467 15.7058 94.4476 15.5588C95.1485 15.4118 95.8805 15.3383 96.6436 15.3383C96.9985 15.3383 97.3711 15.3599 97.7615 15.4031C98.1519 15.4464 98.5689 15.5199 99.0125 15.6237V15.1048L98.9977 14.7473C98.978 14.5128 98.9386 14.286 98.8794 14.067C98.7907 13.7383 98.6354 13.4486 98.4136 13.1978C98.1918 12.947 97.899 12.7524 97.5353 12.614C97.1715 12.4756 96.7145 12.4065 96.1644 12.4065C95.4192 12.4065 94.736 12.4584 94.1149 12.5621C93.4938 12.6659 92.9881 12.787 92.5977 12.9254L92.1984 10.3827L92.418 10.3135C92.8099 10.1982 93.3311 10.0829 93.9818 9.96761C94.7626 9.82924 95.5966 9.76005 96.4839 9.76005ZM61.7745 3.5332V19.0744L61.7803 19.3484C61.7919 19.6111 61.821 19.8398 61.8676 20.0343C61.9297 20.2938 62.0406 20.5143 62.2003 20.696C62.36 20.8776 62.5774 21.0159 62.8525 21.1111C63.1275 21.2062 63.478 21.2797 63.9039 21.3316L63.4514 23.9261C62.4931 23.9088 61.699 23.805 61.0691 23.6148C60.4391 23.4245 59.9378 23.1521 59.5652 22.7975C59.1925 22.4429 58.9308 22.0019 58.78 21.4743C58.6291 20.9468 58.5537 20.3457 58.5537 19.6711V4.05211L61.7745 3.5332ZM111.789 9.81194C112.925 9.81194 113.874 9.96329 114.637 10.266C115.4 10.5687 116.008 10.9924 116.46 11.5373C116.913 12.0821 117.232 12.7394 117.419 13.5091C117.605 14.2788 117.698 15.1221 117.698 16.0388V23.6667H114.477V16.5317L114.472 16.1088C114.456 15.5623 114.409 15.0849 114.331 14.6767C114.233 14.1664 114.074 13.7513 113.852 13.4313C113.63 13.1113 113.328 12.8778 112.947 12.7308C112.565 12.5838 112.1 12.5102 111.549 12.5102C111.141 12.5102 110.715 12.5362 110.272 12.5881C109.828 12.64 109.5 12.6832 109.287 12.7178V23.6667H106.066V10.5384L106.392 10.4526C106.962 10.3109 107.66 10.1752 108.488 10.0454C109.482 9.88978 110.582 9.81194 111.789 9.81194ZM71.7827 17.5955C71.4278 17.5955 71.0684 17.6214 70.7047 17.6733C70.3409 17.7252 70.0126 17.8204 69.7198 17.9587C69.427 18.0971 69.1919 18.2917 69.0145 18.5425C68.837 18.7933 68.7483 19.109 68.7483 19.4895C68.7483 20.2333 68.9878 20.7478 69.467 21.0332C69.9461 21.3186 70.5938 21.4613 71.41 21.4613C72.4038 21.4613 73.1579 21.4094 73.6725 21.3057V17.829L73.5245 17.7901C73.3614 17.7512 73.1535 17.7123 72.9006 17.6733C72.5635 17.6214 72.1908 17.5955 71.7827 17.5955ZM97.1227 17.5955C96.7678 17.5955 96.4084 17.6214 96.0447 17.6733C95.6809 17.7252 95.3526 17.8204 95.0598 17.9587C94.767 18.0971 94.5319 18.2917 94.3544 18.5425C94.177 18.7933 94.0883 19.109 94.0883 19.4895C94.0883 20.2333 94.3278 20.7478 94.8069 21.0332C95.2861 21.3186 95.9338 21.4613 96.75 21.4613C97.7438 21.4613 98.4979 21.4094 99.0125 21.3057V17.829L98.8645 17.7901C98.7014 17.7512 98.4935 17.7123 98.2406 17.6733C97.9035 17.6214 97.5308 17.5955 97.1227 17.5955ZM47.88 12.5102C47.5784 12.5102 47.2634 12.5232 46.9351 12.5492C46.6068 12.5751 46.283 12.6313 45.9636 12.7178V20.4754L46.194 20.6157C46.4419 20.7535 46.7421 20.8841 47.0948 21.0073C47.5651 21.1716 48.0664 21.2538 48.5987 21.2538C49.7699 21.2538 50.6261 20.8646 51.1673 20.0862C51.7086 19.3079 51.9792 18.2614 51.9792 16.9469C51.9792 15.5458 51.6553 14.4561 51.0076 13.6778C50.3599 12.8994 49.3174 12.5102 47.88 12.5102ZM175.633 12.2496C175.131 12.2496 174.692 12.3464 174.316 12.5398C173.939 12.7333 173.621 12.9866 173.361 13.2998C173.101 13.613 172.899 13.9723 172.756 14.3776C172.612 14.783 172.514 15.1975 172.46 15.6213H178.511C178.511 15.1607 178.448 14.7231 178.323 14.3085C178.197 13.894 178.013 13.5347 177.771 13.2307C177.529 12.9267 177.234 12.6872 176.884 12.5122C176.534 12.3372 176.117 12.2496 175.633 12.2496ZM244.481 12.2496C243.979 12.2496 243.54 12.3464 243.164 12.5398C242.787 12.7333 242.469 12.9866 242.209 13.2998C241.949 13.613 241.747 13.9723 241.604 14.3776C241.46 14.783 241.362 15.1975 241.308 15.6213H247.359C247.359 15.1607 247.296 14.7231 247.171 14.3085C247.045 13.894 246.861 13.5347 246.619 13.2307C246.377 12.9267 246.081 12.6872 245.732 12.5122C245.382 12.3372 244.965 12.2496 244.481 12.2496Z" fill="#646C76"/>
<path d="M16.0286 32C7.17623 32 0 24.8366 0 16C0 7.16344 7.17623 0 16.0286 0C24.8809 0 32.0571 7.16344 32.0571 16C32.0571 24.8366 24.8809 32 16.0286 32ZM21.0879 5.62105C21.0176 5.57436 20.8302 5.57436 20.8068 5.55102H18.7924C18.7924 5.55102 18.7456 5.55102 18.6987 5.59771C18.6753 5.6444 18.6753 5.66774 18.7456 5.76112C19.5654 6.99834 20.6194 8.8892 21.3689 11.2703C21.8608 12.8577 22.2122 14.3517 22.1419 16.8261C22.095 19.0905 21.5095 21.028 20.9239 22.8022C20.3149 24.6697 19.4951 26.3271 18.6753 27.9612C18.6519 27.9845 18.6285 28.0079 18.6519 28.0546C18.6753 28.0779 18.7456 28.0779 18.7456 28.0779H20.7834C20.7834 28.0779 20.9707 28.1012 21.0644 28.0312C21.1581 27.9612 21.1816 27.8911 21.2518 27.8211C23.3599 24.9265 25.2571 21.4716 25.2571 16.8728C25.2571 12.2974 23.4302 8.84251 21.2518 5.76112C21.205 5.71443 21.1581 5.66774 21.0879 5.62105ZM19.5524 9.42841C19.4075 9.08067 17.8136 5.67273 17.7653 5.58C17.7411 5.53363 17.717 5.55682 17.6928 5.55682C17.6687 5.58 17.6445 5.60318 17.6687 5.69592C17.8136 6.94781 17.8619 8.77928 17.4513 10.8658C17.1857 12.2336 16.8476 13.4855 15.7608 15.3401C14.7948 17.0093 13.5389 18.238 12.3556 19.3508C11.1239 20.51 9.79562 21.4373 8.4915 22.3415C8.4432 22.3415 8.41905 22.3647 8.41905 22.3878C8.41905 22.411 8.4915 22.4574 8.4915 22.4574L10.0854 23.2688C10.0854 23.2688 10.2303 23.3383 10.3269 23.3383C10.4235 23.3152 10.4718 23.292 10.5443 23.2688C13.394 21.901 16.2679 20.0695 18.1758 16.6152C19.2867 14.5983 19.8905 12.6045 19.8422 10.6803C19.8181 10.1471 19.649 9.7298 19.5524 9.42841ZM16.7439 9.05327C16.7674 8.74564 16.8381 5.66934 16.8381 5.59835C16.8381 5.55102 16.8145 5.55102 16.791 5.55102C16.7674 5.55102 16.7439 5.57468 16.7203 5.64568C16.3904 6.61589 15.7543 7.9884 14.7412 9.40823C14.0579 10.3311 13.3747 11.1594 11.961 12.1532C10.6652 13.0288 9.32221 13.5021 8.09705 13.928C6.80121 14.354 5.55249 14.6143 4.28021 14.8272C4.25665 14.8272 4.23308 14.8272 4.20952 14.8509C4.20952 14.8746 4.23308 14.9219 4.23308 14.9219L5.08127 16.0578C5.08127 16.0578 5.15195 16.1761 5.22264 16.1998C5.29332 16.2234 5.34044 16.2234 5.41112 16.2234C7.90856 16.1998 10.6181 15.8211 13.1862 13.9044C14.6941 12.7922 15.825 11.5143 16.4611 10.0708C16.6732 9.66853 16.7203 9.31357 16.7439 9.05327Z" fill="#646C76"/>
</svg>
