<svg width="640" height="640" viewBox="0 -4 480 480" xmlns="http://www.w3.org/2000/svg" overflow="hidden"><path d="M19.93 154.434l15.308 36.933a8 8 0 007.051 4.93l132.297 5.766h.344a7.93 7.93 0 003.062-.606l68.406-28.344-42.062 93.535-54.734 22.258a7.994 7.994 0 00-4.977 7.016 8.003 8.003 0 004.262 7.469l22.312 11.714-6.64 2.75 6.136 14.786 24.403-10.13-.098-.23 64.406-26.199c.145-.059.258-.168.403-.234a8.335 8.335 0 001.152-.68 9.73 9.73 0 00.719-.55c.316-.29.605-.606.863-.946.219-.25.414-.516.586-.8.07-.102.16-.177.223-.286l93.753-165.41 94.329-39.114c20.398-8.472 30.07-31.874 21.597-52.277a40.187 40.187 0 00-27.039-23.426l-38.726-9.886A80.413 80.413 0 00356.8 6.082l-235.074 97.469L40.09 86.93a8.206 8.206 0 00-4.664.445L5.863 99.641a8.005 8.005 0 00-4.32 10.457zm153.597 31.574l-123.824-5.39 113.543-8.122a7.835 7.835 0 002.496-.582l99.762-41.379-9.602 21.29zm79.45 92.367l-30.313-13.496 64.313-143.102 71.632-29.695zm-62.872 28.578l-18.511-9.746 44.078-17.926 20.273 9.024zm255.2-233.68l-75.36 31.247 12.797-22.641 77.195-32a23.948 23.948 0 01-14.632 23.426zM362.93 20.855a64.448 64.448 0 0140.375-2.878l5.16 1.32-39.41 16.344 6.144 14.777 59.13-24.512 7.741 1.98a23.954 23.954 0 0111.73 7.266l-293 121.48-119.105 8.513-3.91-9.434 88.262-36.336a7.58 7.58 0 001.45-.895zM39.297 103.098l56 11.406-63.672 26.402-12.242-29.554z"/><path d="M339.5 47.895l14.781-6.125 6.125 14.78-14.781 6.126zM309.938 60.148l14.78-6.125 6.126 14.782-14.781 6.125zM134.984 330.113l14.778-6.129 6.129 14.782-14.782 6.129zM105.414 342.375l14.777-6.129 6.13 14.777-14.778 6.133zM280.457 72.516l14.781-6.13 6.13 14.782-14.786 6.129zM472 455.977h-8v-56a8 8 0 00-8-8h-56v-40h24v-16h-19.055L423.2 299.55a7.77 7.77 0 00.688-2.184v-.504a7.832 7.832 0 00-.11-2.488v-.344l-8-32a8.004 8.004 0 00-7.777-6.054h-24v-32h-16v32h-24a8.005 8.005 0 00-7.762 6.054l-8 32v.344a7.947 7.947 0 00-.11 2.488v.504a7.77 7.77 0 00.688 2.184l18.239 36.426H328v16h24v40h-88a8 8 0 00-8 8v56H8a8 8 0 000 16h464a8 8 0 000-16zm-24-48v48h-48v-48zm-83.055-72l-16-32h54.11l-16 32zm36.797-64l4 16h-59.496l4-16zm-17.742 80v104h-16v-104zm-112 56h80v48h-80z"/><path d="M288 423.977h16v16h-16zM320 423.977h16v16h-16zM416 423.977h16v16h-16z"/></svg>