<svg width="272" height="100" viewBox="0 0 272 100" fill="none" xmlns="http://www.w3.org/2000/svg"><g clip-path="url(#clip0)"><path d="M59.382 29.021h-1.316a1.281 1.281 0 01-1.278-1.28v-8.036-.283a1.265 1.265 0 00-1.273-1.16H44.097a1.265 1.265 0 00-1.278 1.238v8.054a1.28 1.28 0 01-1.28 1.278h-1.317a1.277 1.277 0 01-1.277-1.278v-8.05c0-2.927 1.664-5.129 3.87-5.129h13.981c2.245 0 3.87 2.241 3.87 5.33v8.035a1.282 1.282 0 01-1.284 1.281z" fill="#1F3553"/><path fill-rule="evenodd" clip-rule="evenodd" d="M33.611 73.804h32.513a5.264 5.264 0 005.256-5.245V32.253a5.261 5.261 0 00-5.256-5.271H33.592a5.26 5.26 0 00-5.237 5.271v36.29a5.264 5.264 0 005.256 5.261z" fill="#00A88F"/><path d="M34.78 86.128a6.522 6.522 0 11.023-13.044 6.522 6.522 0 01-.023 13.044zm0-9.166a2.647 2.647 0 10.03 5.294 2.647 2.647 0 00-.03-5.294zM64.804 86.14a6.522 6.522 0 11-.007-13.044 6.522 6.522 0 01.007 13.043zm0-9.166a2.647 2.647 0 100 5.294 2.647 2.647 0 000-5.294z" fill="#1F3553"/><path d="M49.415 56.162c-2.98 0-5.419-.914-7.2-2.71-2.968-2.976-2.991-7.288-2.991-7.47h3.87a8.355 8.355 0 00.871 3.364c1.033 1.985 2.814 2.95 5.446 2.95 2.632 0 4.482-1 5.512-3.055a8.248 8.248 0 00.828-3.255h3.87c.008 3.515-2.124 10.176-10.206 10.176z" fill="#fff"/><path d="M139.704 42.623a12.194 12.194 0 00-3.983-2.66 12.678 12.678 0 00-4.842-.928 12.444 12.444 0 00-5.373 1.16 12.929 12.929 0 00-3.851 2.784 12.855 12.855 0 00-3.816-2.783 12.228 12.228 0 00-5.342-1.161 7.994 7.994 0 00-3.638.948 8.38 8.38 0 00-2.102 1.548 3.116 3.116 0 00-2.848-1.75h-1.014a2.875 2.875 0 00-2.872 2.873v29.203h6.758V51.575a5.612 5.612 0 011.757-4.153 5.352 5.352 0 013.959-1.622 5.857 5.857 0 014.165 1.641 5.106 5.106 0 011.614 3.948V71.88h6.824V51.382a5.124 5.124 0 011.68-3.948 5.783 5.783 0 014.099-1.634 5.528 5.528 0 014.06 1.634 5.37 5.37 0 011.657 4.021V71.88h6.758V51.448a12.5 12.5 0 00-3.65-8.825zM158.728 39.015c-1.761 0-3.368 1.425-3.368 3.186v29.672h6.716V42.2c0-1.761-1.591-3.186-3.348-3.186zM177.465 28.92c-1.687 0-3.367 1.37-3.367 3.058v39.895h6.731V31.977c0-1.687-1.676-3.057-3.364-3.057zM196.203 28.92c-1.688 0-3.368 1.37-3.368 3.058v39.895h6.731V31.977c0-1.687-1.676-3.057-3.363-3.057zM239.785 39.797a3.383 3.383 0 00-3.379 3.379 13.933 13.933 0 00-9.85-4.025 16.563 16.563 0 00-15.266 22.948 15.872 15.872 0 003.576 5.284 16.255 16.255 0 005.288 3.576 16.513 16.513 0 006.402 1.25 12.585 12.585 0 005.898-1.459 16.348 16.348 0 003.937-2.918v4.04h6.773V43.177a3.38 3.38 0 00-3.379-3.379zm-4.199 19.74a9.502 9.502 0 01-5.222 5.221c-1.655.68-3.461.91-5.233.662a8.121 8.121 0 01-1.308-.275 9.927 9.927 0 01-4.281-2.469 9.617 9.617 0 01-2.082-3.139c-.69-1.673-.916-3.5-.654-5.291.056-.438.15-.87.278-1.293a9.54 9.54 0 016.646-6.684 8.135 8.135 0 011.277-.283 10.968 10.968 0 011.549-.108 9.848 9.848 0 013.82.755 9.631 9.631 0 013.139 2.082 9.96 9.96 0 012.45 4.2c.127.417.221.844.283 1.277a10.116 10.116 0 01-.662 5.326v.019zM158.724 28.92a3.553 3.553 0 00-2.586 1.077 3.712 3.712 0 00-1.087 2.62 3.54 3.54 0 001.068 2.586 3.702 3.702 0 002.624 1.099 3.566 3.566 0 002.59-1.072 3.701 3.701 0 001.091-2.628 3.556 3.556 0 00-1.076-2.594 3.716 3.716 0 00-2.624-1.087z" fill="#1F3553"/></g><defs><clipPath id="clip0"><path fill="#fff" d="M0 0h272v100H0z"/></clipPath></defs></svg>