<svg width="176" height="144" viewBox="0 0 176 144" fill="none" xmlns="http://www.w3.org/2000/svg">
<path d="M174.05 135.88V28.8398C174.05 24.9849 170.925 21.8599 167.07 21.8599L8.00006 21.8599C4.14511 21.8599 1.02005 24.9849 1.02005 28.8398V135.88C1.02005 139.735 4.14511 142.86 8.00006 142.86H167.07C170.925 142.86 174.05 139.735 174.05 135.88Z" fill="white"/>
<path d="M167.06 143.86H8C5.87827 143.86 3.84343 143.017 2.34314 141.517C0.842849 140.016 0 137.982 0 135.86V28.8398C0 26.7181 0.842849 24.6833 2.34314 23.183C3.84343 21.6827 5.87827 20.8398 8 20.8398H167.06C169.182 20.8398 171.217 21.6827 172.717 23.183C174.217 24.6833 175.06 26.7181 175.06 28.8398V135.84C175.063 136.892 174.858 137.935 174.457 138.907C174.056 139.88 173.467 140.765 172.724 141.51C171.981 142.255 171.098 142.846 170.126 143.249C169.154 143.652 168.112 143.86 167.06 143.86ZM8 22.8598C6.4087 22.8598 4.8826 23.492 3.75739 24.6172C2.63217 25.7424 2 27.2685 2 28.8598V135.86C2 137.451 2.63217 138.977 3.75739 140.102C4.8826 141.228 6.4087 141.86 8 141.86H167.06C168.651 141.86 170.177 141.228 171.303 140.102C172.428 138.977 173.06 137.451 173.06 135.86V28.8398C173.06 27.2485 172.428 25.7224 171.303 24.5972C170.177 23.472 168.651 22.8398 167.06 22.8398L8 22.8598Z" fill="#DFE4E9"/>
<path d="M1.05005 28.8201V37.2401C5.12112 37.2401 9.02543 35.6229 11.9041 32.7442C14.7828 29.8655 16.4 25.9612 16.4 21.8901H8.03003C6.18904 21.8953 4.42419 22.6255 3.11774 23.9226C1.81129 25.2197 1.06845 26.9792 1.05005 28.8201Z" fill="white"/>
<path d="M1.05005 38.2398H0.0500488V28.8198C0.0500488 26.6981 0.892897 24.6633 2.39319 23.163C3.89348 21.6627 5.92832 20.8198 8.05005 20.8198H17.42V21.8198C17.4266 23.9738 17.008 26.1078 16.1883 28.0997C15.3686 30.0916 14.1638 31.9021 12.6431 33.4275C11.1223 34.9529 9.31548 36.1632 7.32611 36.989C5.33675 37.8148 3.204 38.2398 1.05005 38.2398ZM8.05005 22.8698C6.45875 22.8698 4.93259 23.502 3.80737 24.6272C2.68215 25.7524 2.05005 27.2785 2.05005 28.8698V36.2198C5.50452 35.973 8.7538 34.4877 11.2009 32.037C13.6479 29.5862 15.1283 26.3347 15.37 22.8798L8.05005 22.8698Z" fill="#DFE4E9"/>
<path d="M173.99 28.8601V37.2401C169.919 37.2401 166.015 35.6229 163.136 32.7442C160.257 29.8655 158.64 25.9612 158.64 21.8901H167.01C168.858 21.8954 170.629 22.6311 171.936 23.9368C173.244 25.2425 173.982 27.0123 173.99 28.8601Z" fill="white"/>
<path d="M174.99 38.2401H173.99C169.655 38.2375 165.497 36.5141 162.432 33.4484C159.366 30.3828 157.643 26.2256 157.64 21.8901V20.8901H158.64H167.01C169.132 20.8901 171.167 21.733 172.667 23.2333C174.167 24.7336 175.01 26.7684 175.01 28.8901L174.99 38.2401ZM159.67 22.8701C159.905 26.3303 161.382 29.5891 163.83 32.046C166.278 34.5029 169.531 35.9924 172.99 36.2401V28.8601C172.99 27.2688 172.358 25.7427 171.233 24.6175C170.107 23.4923 168.581 22.8601 166.99 22.8601L159.67 22.8701Z" fill="#DFE4E9"/>
<path d="M1.05005 135.89V127.5C5.12204 127.503 9.02633 129.122 11.9047 132.002C14.7831 134.883 16.4 138.788 16.4 142.86H8.03003C6.18217 142.855 4.41134 142.119 3.10376 140.813C1.79618 139.508 1.05796 137.738 1.05005 135.89Z" fill="white"/>
<path d="M16.4 143.87H8.03003C5.9083 143.87 3.87346 143.027 2.37317 141.527C0.872878 140.027 0.0300293 137.992 0.0300293 135.87V126.48H1.03003C5.36643 126.485 9.52357 128.211 12.5889 131.278C15.6543 134.345 17.3774 138.504 17.38 142.84V142.94L17.29 143.84L16.4 143.87ZM2.05005 128.54V135.89C2.05005 137.481 2.68215 139.007 3.80737 140.133C4.93259 141.258 6.45875 141.89 8.05005 141.89H15.4C15.1639 138.427 13.6816 135.167 11.2274 132.713C8.77306 130.258 5.51291 128.776 2.05005 128.54Z" fill="#DFE4E9"/>
<path d="M173.99 135.85V127.46C171.973 127.46 169.977 127.857 168.114 128.629C166.251 129.401 164.558 130.533 163.132 131.959C161.707 133.386 160.576 135.079 159.806 136.943C159.035 138.806 158.639 140.803 158.64 142.82H167.01C168.858 142.815 170.629 142.079 171.936 140.773C173.244 139.468 173.982 137.698 173.99 135.85Z" fill="white"/>
<path d="M167.01 143.83H157.64V142.83C157.64 138.492 159.362 134.331 162.428 131.262C165.493 128.192 169.652 126.465 173.99 126.46H174.99V135.85C174.985 137.965 174.142 139.991 172.647 141.487C171.152 142.982 169.125 143.825 167.01 143.83ZM159.67 141.83H167.01C168.601 141.83 170.127 141.198 171.253 140.073C172.378 138.947 173.01 137.421 173.01 135.83V128.47C169.55 128.715 166.294 130.202 163.843 132.656C161.392 135.111 159.91 138.369 159.67 141.83Z" fill="#DFE4E9"/>
<path d="M45.47 22.77H34.89V141.71H45.47V22.77Z" fill="#EDF0F3"/>
<path d="M140.18 22.77H129.6V141.71H140.18V22.77Z" fill="#EDF0F3"/>
<path d="M68.92 21.24H64.92V12.24C64.9174 9.50552 65.999 6.88153 67.9279 4.94326C69.8568 3.00499 72.4755 1.91061 75.21 1.90002H98.83C100.192 1.89343 101.541 2.15609 102.801 2.6729C104.061 3.1897 105.206 3.95046 106.17 4.9114C107.135 5.87235 107.9 7.01453 108.422 8.27225C108.943 9.52997 109.211 10.8784 109.21 12.24V20.95H105.21V12.24C105.207 10.5647 104.541 8.95869 103.356 7.77403C102.171 6.58937 100.565 5.92267 98.89 5.92002H75.21C73.5399 5.93058 71.9416 6.60077 70.7634 7.78457C69.5852 8.96838 68.9227 10.5698 68.92 12.24V21.24Z" fill="#DFE4E9"/>
<path d="M98.63 0H75.6C73.6229 0 72.02 1.60282 72.02 3.58V4.52C72.02 6.49718 73.6229 8.1 75.6 8.1H98.63C100.607 8.1 102.21 6.49718 102.21 4.52V3.58C102.21 1.60282 100.607 0 98.63 0Z" fill="#00A88F"/>
<path d="M85.4152 93.5597C92.8242 95.0671 100.052 90.2829 101.56 82.8739C103.067 75.4649 98.2829 68.2367 90.8739 66.7293C83.4649 65.222 76.2368 70.0062 74.7294 77.4152C73.222 84.8242 78.0062 92.0523 85.4152 93.5597Z" fill="#F8C600"/>
<path fill-rule="evenodd" clip-rule="evenodd" d="M87.3952 83.7782C86.6988 83.6683 86.0324 83.4169 85.4369 83.0395C84.8415 82.6621 84.3297 82.1668 83.9332 81.5839C83.178 80.3085 82.9046 78.8048 83.1627 77.3452L85.201 77.7599C85.1054 78.3826 85.1394 79.0183 85.3007 79.6273C85.4676 80.19 85.796 80.6915 86.2452 81.0695C86.6943 81.4475 87.2444 81.6854 87.8275 81.7537C88.403 81.9239 89.0163 81.9176 89.5882 81.7356C90.16 81.5536 90.6642 81.2043 91.0354 80.7328C91.4001 80.2471 91.6652 79.6941 91.8155 79.1056L93.8341 79.5163C93.7172 80.2319 93.4536 80.9157 93.0599 81.5245C92.6661 82.1334 92.1507 82.6543 91.5461 83.0545C90.9414 83.4548 90.2606 83.7256 89.5462 83.8501C88.8319 83.9747 88.0996 83.9502 87.3952 83.7782Z" fill="white"/>
</svg>
