<svg width="208" height="200" viewBox="0 0 208 200" fill="none" xmlns="http://www.w3.org/2000/svg">
<path opacity="0.3" fill-rule="evenodd" clip-rule="evenodd" d="M198.792 98.9473C203.72 98.9473 207.667 99.6099 207.667 103.577V115.133C207.665 115.617 207.561 116.096 207.362 116.537C207.163 116.978 206.874 117.372 206.513 117.693V119.753C206.513 120.059 206.393 120.352 206.178 120.568C205.964 120.785 205.673 120.906 205.369 120.906H204.225C203.921 120.906 203.629 120.785 203.413 120.569C203.197 120.353 203.074 120.06 203.072 119.753V118.6H193.9V119.753C193.898 120.06 193.775 120.353 193.559 120.569C193.343 120.785 193.051 120.906 192.747 120.906H191.603C191.299 120.906 191.008 120.785 190.794 120.568C190.579 120.352 190.459 120.059 190.459 119.753V117.693C190.099 117.372 189.811 116.978 189.614 116.536C189.417 116.095 189.315 115.617 189.314 115.133V103.577C189.314 99.5282 193.414 98.9473 198.486 98.9473H198.792ZM205.369 110.503H191.603V115.133C191.605 115.293 191.64 115.451 191.707 115.597C191.773 115.742 191.87 115.872 191.99 115.977L192.324 116.286H204.648L204.982 115.977C205.102 115.872 205.198 115.742 205.265 115.597C205.332 115.451 205.367 115.293 205.369 115.133V110.503ZM194.468 111.665C194.808 111.665 195.141 111.767 195.424 111.957C195.707 112.148 195.927 112.419 196.058 112.735C196.188 113.052 196.222 113.401 196.155 113.737C196.089 114.073 195.925 114.382 195.685 114.625C195.444 114.867 195.137 115.032 194.803 115.099C194.47 115.166 194.124 115.132 193.809 115.001C193.495 114.869 193.226 114.647 193.037 114.362C192.848 114.077 192.747 113.742 192.747 113.399C192.746 113.171 192.789 112.945 192.876 112.734C192.962 112.523 193.088 112.331 193.248 112.17C193.408 112.009 193.599 111.881 193.808 111.795C194.017 111.708 194.241 111.664 194.468 111.665ZM202.504 111.665C202.844 111.665 203.177 111.767 203.46 111.957C203.743 112.148 203.964 112.419 204.094 112.735C204.224 113.052 204.258 113.401 204.192 113.737C204.125 114.073 203.962 114.382 203.721 114.625C203.48 114.867 203.174 115.032 202.84 115.099C202.506 115.166 202.16 115.132 201.846 115.001C201.531 114.869 201.262 114.647 201.073 114.362C200.884 114.077 200.783 113.742 200.783 113.399C200.783 112.939 200.965 112.498 201.287 112.173C201.61 111.848 202.048 111.665 202.504 111.665ZM205.369 104.721H191.603V108.197H205.369V104.721ZM198.486 101.262C194.252 101.262 192.621 101.789 191.99 102.406H204.982C204.351 101.789 202.72 101.262 198.486 101.262Z" fill="#1F3553"/>
<path opacity="0.56" fill-rule="evenodd" clip-rule="evenodd" d="M126.96 191.61C126.959 191.405 126.907 191.205 126.809 191.026C126.712 190.847 126.572 190.695 126.402 190.584L117.789 185.137V178.783C117.789 178.323 117.607 177.882 117.285 177.557C116.962 177.232 116.524 177.049 116.068 177.049C115.611 177.049 115.174 177.232 114.851 177.557C114.528 177.882 114.347 178.323 114.347 178.783V185.137L105.734 190.584C105.485 190.738 105.301 190.979 105.216 191.261C105.131 191.543 105.152 191.847 105.273 192.115C105.395 192.382 105.61 192.596 105.877 192.716C106.145 192.835 106.446 192.851 106.725 192.762L114.347 190.357V196.711L112.284 198.273C112.211 198.325 112.151 198.395 112.111 198.475C112.07 198.556 112.049 198.645 112.05 198.735V199.416C112.051 199.506 112.072 199.595 112.112 199.675C112.153 199.756 112.211 199.826 112.282 199.88C112.353 199.935 112.436 199.972 112.524 199.989C112.612 200.006 112.702 200.003 112.788 199.979L116.068 199.026L119.347 199.979C119.433 200.003 119.523 200.006 119.611 199.989C119.698 199.972 119.78 199.935 119.851 199.88C119.922 199.826 119.979 199.756 120.018 199.675C120.057 199.595 120.077 199.506 120.077 199.416V198.735C120.078 198.646 120.058 198.557 120.019 198.477C119.98 198.397 119.923 198.327 119.852 198.273L117.789 196.72V190.366L125.402 192.771C125.582 192.829 125.773 192.842 125.96 192.811C126.146 192.779 126.323 192.704 126.475 192.591C126.627 192.477 126.75 192.329 126.834 192.159C126.919 191.988 126.962 191.8 126.96 191.61Z" fill="#A8ACB2"/>
<path opacity="0.56" fill-rule="evenodd" clip-rule="evenodd" d="M6.88765 114.143C7.56833 114.143 8.23373 113.939 8.7997 113.558C9.36566 113.177 9.80677 112.636 10.0673 112.002C10.3277 111.368 10.3959 110.671 10.2631 109.999C10.1303 109.326 9.80254 108.708 9.32122 108.223C8.83991 107.738 8.22668 107.408 7.55908 107.274C6.89148 107.14 6.19949 107.209 5.57062 107.471C4.94176 107.734 4.40425 108.178 4.02608 108.749C3.64792 109.319 3.44607 109.989 3.44607 110.675C3.44607 111.595 3.80867 112.477 4.45409 113.127C5.09951 113.777 5.97488 114.143 6.88765 114.143ZM6.88765 109.513C7.11611 109.511 7.33995 109.578 7.53077 109.704C7.7216 109.831 7.87081 110.012 7.95948 110.224C8.04815 110.436 8.07227 110.67 8.02879 110.896C7.98532 111.122 7.8762 111.33 7.71529 111.493C7.55437 111.657 7.34892 111.768 7.12498 111.814C6.90104 111.86 6.6687 111.837 6.45746 111.749C6.24621 111.662 6.06558 111.513 5.93846 111.322C5.81134 111.13 5.74347 110.905 5.74347 110.675C5.74346 110.368 5.86371 110.074 6.07803 109.857C6.29236 109.639 6.58337 109.516 6.88765 109.513ZM20.654 106.055H13.7708C13.1631 106.055 12.5801 106.297 12.1495 106.729C11.7189 107.161 11.4758 107.748 11.4734 108.36V108.551V115.296H2.30188V104.893C2.27643 104.603 2.1444 104.334 1.93179 104.138C1.71918 103.942 1.44141 103.833 1.15319 103.833C0.864967 103.833 0.587194 103.942 0.374585 104.138C0.161975 104.334 0.0299321 104.603 0.00448175 104.893V119.916C-0.00964874 120.077 0.0095517 120.238 0.0608591 120.391C0.112167 120.544 0.194465 120.684 0.302508 120.803C0.410551 120.922 0.54198 121.017 0.688434 121.082C0.834888 121.147 0.993162 121.181 1.15319 121.181C1.31321 121.181 1.47148 121.147 1.61794 121.082C1.76439 121.017 1.89582 120.922 2.00386 120.803C2.11191 120.684 2.19419 120.544 2.2455 120.391C2.29681 120.238 2.31601 120.077 2.30188 119.916V117.61H22.9514V119.916C22.9514 120.222 23.0719 120.515 23.2865 120.731C23.5011 120.947 23.7921 121.069 24.0956 121.069C24.399 121.069 24.6901 120.947 24.9046 120.731C25.1192 120.515 25.2398 120.222 25.2398 119.916V110.675C25.2398 110.068 25.1212 109.467 24.8907 108.907C24.6602 108.346 24.3224 107.837 23.8966 107.408C23.4708 106.979 22.9653 106.638 22.4089 106.406C21.8525 106.174 21.2562 106.055 20.654 106.055ZM22.9514 115.296H13.7708V108.36H20.654C21.2626 108.363 21.8455 108.607 22.2759 109.041C22.7062 109.474 22.949 110.062 22.9514 110.675V115.296Z" fill="#A8ACB2"/>
<path opacity="0.56" fill-rule="evenodd" clip-rule="evenodd" d="M157.007 5.40173L150.7 15.7956H163.313L157.007 5.40173ZM157.007 9.8407L159.223 13.4718H154.781L157.007 9.8407ZM163.313 18.1104C162.292 18.1104 161.294 18.4155 160.445 18.9871C159.596 19.5586 158.934 20.371 158.544 21.3214C158.153 22.2719 158.051 23.3177 158.25 24.3267C158.449 25.3357 158.941 26.2625 159.663 26.99C160.385 27.7174 161.305 28.2128 162.306 28.4135C163.307 28.6142 164.345 28.5112 165.289 28.1175C166.232 27.7238 167.038 27.0571 167.605 26.2017C168.173 25.3463 168.475 24.3407 168.475 23.3119C168.478 22.6282 168.346 21.9507 168.087 21.3186C167.829 20.6864 167.449 20.1121 166.969 19.6286C166.489 19.1451 165.919 18.762 165.291 18.5015C164.664 18.2409 163.992 18.108 163.313 18.1104ZM163.313 26.1986C162.747 26.1968 162.194 26.026 161.724 25.7077C161.254 25.3894 160.888 24.938 160.673 24.4103C160.457 23.8827 160.402 23.3026 160.513 22.7432C160.625 22.1839 160.898 21.6704 161.299 21.2676C161.7 20.8647 162.211 20.5907 162.766 20.4801C163.322 20.3694 163.898 20.4271 164.421 20.6459C164.944 20.8646 165.39 21.2346 165.705 21.7091C166.019 22.1836 166.187 22.7414 166.187 23.3119C166.187 23.6918 166.113 24.0679 165.968 24.4187C165.824 24.7695 165.612 25.0882 165.345 25.3564C165.078 25.6245 164.761 25.837 164.412 25.9815C164.064 26.126 163.69 26.1998 163.313 26.1986ZM146.682 27.9325H155.862V18.6914H146.682V27.9325ZM148.997 20.9971H153.583V25.654H148.997V20.9971Z" fill="#A8ACB2"/>
<path opacity="0.56" fill-rule="evenodd" clip-rule="evenodd" d="M88.1173 4.62053V11.5559C88.1173 12.1674 88.3583 12.7538 88.7875 13.1862C89.2167 13.6187 89.7987 13.8616 90.4056 13.8616H91.5588V21.9588C91.5588 22.2646 91.6794 22.5578 91.894 22.774C92.1085 22.9902 92.3996 23.1117 92.703 23.1117C93.0065 23.1117 93.2975 22.9902 93.5121 22.774C93.7267 22.5578 93.8472 22.2646 93.8472 21.9588V1.30718C93.848 1.131 93.809 0.956946 93.7332 0.798187C93.6573 0.639427 93.5467 0.500118 93.4095 0.390803C93.2724 0.281488 93.1124 0.205024 92.9416 0.1672C92.7708 0.129376 92.5937 0.131182 92.4237 0.172478C89.9462 0.78068 88.1173 2.89577 88.1173 4.62053ZM82.3873 8.08819H80.0989V1.15287C80.0734 0.863596 79.9414 0.594416 79.7288 0.398345C79.5162 0.202275 79.2384 0.0935246 78.9502 0.0935246C78.662 0.0935246 78.3842 0.202275 78.1716 0.398345C77.959 0.594416 77.8269 0.863596 77.8015 1.15287V8.08819H75.5041V1.15287C75.5041 0.847107 75.3835 0.553873 75.169 0.337669C74.9544 0.121466 74.6634 0 74.3599 0C74.0564 0 73.7654 0.121466 73.5508 0.337669C73.3363 0.553873 73.2157 0.847107 73.2157 1.15287V8.08819C73.2157 9.31363 73.6988 10.4889 74.5588 11.3554C75.4188 12.2219 76.5853 12.7087 77.8015 12.7087V21.9588C77.8269 22.2481 77.959 22.5173 78.1716 22.7134C78.3842 22.9094 78.662 23.0182 78.9502 23.0182C79.2384 23.0182 79.5162 22.9094 79.7288 22.7134C79.9414 22.5173 80.0734 22.2481 80.0989 21.9588V12.7087C81.3151 12.7087 82.4815 12.2219 83.3415 11.3554C84.2015 10.4889 84.6847 9.31363 84.6847 8.08819V1.15287C84.6592 0.863596 84.5272 0.594416 84.3146 0.398345C84.102 0.202275 83.8242 0.0935246 83.536 0.0935246C83.2477 0.0935246 82.97 0.202275 82.7574 0.398345C82.5448 0.594416 82.4127 0.863596 82.3873 1.15287V8.08819Z" fill="#A8ACB2"/>
<path d="M158.723 55.2273L139.127 72.8641C133.548 66.8099 125.823 62.2865 117.913 60.1268L124.706 34.2848C137.516 37.7579 149.72 45.4017 158.723 55.2273Z" fill="#E0F3F2" stroke="#C7E0DF" stroke-width="0.5" stroke-miterlimit="10"/>
<path fill-rule="evenodd" clip-rule="evenodd" d="M148.819 93.097C147.204 85.7284 143.722 78.9073 138.711 73.2993L158.797 55.0779C166.934 64.1844 172.59 75.2607 175.212 87.2261C177.833 99.1914 177.332 111.637 173.757 123.349C170.181 135.061 163.654 145.639 154.811 154.051C145.968 162.464 135.112 168.423 123.302 171.347L116.852 144.901C124.125 143.1 130.81 139.43 136.256 134.25C141.701 129.069 145.721 122.555 147.923 115.343C150.125 108.13 150.434 100.466 148.819 93.097Z" fill="#1F3553"/>
<path fill-rule="evenodd" clip-rule="evenodd" d="M110.587 145.966C118.582 145.203 126.208 142.216 132.615 137.339L148.91 159.066C138.504 166.988 126.118 171.839 113.134 173.078C100.15 174.316 87.0798 171.892 75.384 166.078L87.3434 141.656C94.5449 145.236 102.592 146.728 110.587 145.966Z" fill="#00A88F"/>
<path fill-rule="evenodd" clip-rule="evenodd" d="M118.006 60.4148C111.307 58.5578 104.264 58.3507 97.4691 59.8112C90.6744 61.2716 84.3279 64.3566 78.9645 68.8061C73.6011 73.2556 69.3781 78.9393 66.6515 85.3778C63.9249 91.8163 62.7746 98.821 63.2977 105.801L36.3462 107.852C35.4969 96.5177 37.3646 85.1442 41.7918 74.69C46.2189 64.2358 53.0759 55.0073 61.7844 47.7826C70.493 40.5579 80.7979 35.5487 91.8303 33.1775C102.863 30.8062 114.299 31.1423 125.176 34.1575L118.006 60.4148Z" fill="#F85F5F"/>
<path fill-rule="evenodd" clip-rule="evenodd" d="M78.4624 69.2388C72.9873 73.9237 68.7542 79.9066 66.1439 86.6492C63.5336 93.3918 62.628 100.682 63.5086 107.865C64.3893 115.048 67.0285 121.898 71.1888 127.797C75.3491 133.697 80.8999 138.462 87.3419 141.664L75.3855 166.087C64.9249 160.889 55.9112 153.151 49.1556 143.571C42.4 133.99 38.1143 122.868 36.6843 111.204C35.2544 99.5404 36.7249 87.7015 40.9636 76.7527C45.2023 65.8038 52.0762 56.0886 60.9667 48.4812L78.4624 69.2388Z" fill="#F8C600"/>
</svg>
