<svg width="280" height="134" viewBox="0 0 280 134" fill="none" xmlns="http://www.w3.org/2000/svg">
<path d="M11.9495 0.959961H268.622C274.563 0.959961 279.379 5.77606 279.379 11.717V28.564C279.379 34.505 274.563 39.3211 268.622 39.3211H11.9495C6.0085 39.3211 1.1924 34.505 1.1924 28.564V11.717C1.1924 5.77606 6.0085 0.959961 11.9495 0.959961Z" fill="white" stroke="#E3E3E3"/>
<path d="M25.1471 32.5031C31.9773 32.5031 37.5144 26.966 37.5144 20.1357C37.5144 13.3055 31.9773 7.76843 25.1471 7.76843C18.3168 7.76843 12.7797 13.3055 12.7797 20.1357C12.7797 26.966 18.3168 32.5031 25.1471 32.5031Z" fill="#00A88F"/>
<path fill-rule="evenodd" clip-rule="evenodd" d="M25.1373 23.4857C24.5021 23.5147 23.8676 23.4131 23.2732 23.1872C22.6787 22.9614 22.1369 22.6161 21.681 22.1727C20.7817 21.1736 20.2682 19.8865 20.2329 18.5427H22.0962C22.1205 19.1082 22.2584 19.6631 22.5017 20.1743C22.743 20.6538 23.1241 21.049 23.5947 21.3075C24.0652 21.566 24.6031 21.6758 25.1373 21.6224C25.6769 21.6706 26.2185 21.5555 26.692 21.2921C27.1654 21.0288 27.5487 20.6292 27.7923 20.1453C28.033 19.6509 28.1679 19.1116 28.1881 18.562H30.0514C30.0757 19.2143 29.9653 19.8646 29.727 20.4723C29.4888 21.08 29.1279 21.6321 28.6668 22.0942C28.2057 22.5562 27.6543 22.9182 27.047 23.1576C26.4398 23.3971 25.7897 23.5087 25.1373 23.4857Z" fill="#F8C600"/>
<path d="M11.9495 48.0447H268.622C274.563 48.0447 279.379 52.8608 279.379 58.8017V75.6487C279.379 81.5897 274.563 86.4058 268.622 86.4058H11.9495C6.0085 86.4058 1.1924 81.5897 1.1924 75.6487V58.8017C1.1924 52.8608 6.0085 48.0447 11.9495 48.0447Z" fill="white" stroke="#E3E3E3"/>
<path d="M25.1471 79.5975C31.9773 79.5975 37.5144 74.0605 37.5144 67.2302C37.5144 60.3999 31.9773 54.8629 25.1471 54.8629C18.3168 54.8629 12.7797 60.3999 12.7797 67.2302C12.7797 74.0605 18.3168 79.5975 25.1471 79.5975Z" fill="#F8C600"/>
<path fill-rule="evenodd" clip-rule="evenodd" d="M25.1373 70.5802C24.5012 70.6096 23.8658 70.5073 23.2711 70.2797C22.6764 70.0521 22.135 69.7041 21.681 69.2576C20.7817 68.2584 20.2682 66.9713 20.2329 65.6275H22.0962C22.1241 66.1948 22.2687 66.7502 22.521 67.2591C22.7636 67.7327 23.1424 68.1228 23.6087 68.3792C24.075 68.6356 24.6074 68.7465 25.1373 68.6976C25.6781 68.7463 26.2211 68.6304 26.6949 68.365C27.1686 68.0997 27.5512 67.6974 27.7923 67.2108C28.0341 66.7168 28.169 66.1772 28.1881 65.6275H30.0514C30.0798 66.2822 29.9724 66.9357 29.736 67.5468C29.4996 68.158 29.1393 68.7136 28.6777 69.1788C28.2162 69.644 27.6634 70.0086 27.0541 70.2498C26.4448 70.491 25.7922 70.6035 25.1373 70.5802Z" fill="#1F3553"/>
<path d="M11.9495 95.1389H268.622C274.563 95.1389 279.379 99.955 279.379 105.896V122.743C279.379 128.684 274.563 133.5 268.622 133.5H11.9495C6.0085 133.5 1.1924 128.684 1.1924 122.743V105.896C1.1924 99.955 6.0085 95.1389 11.9495 95.1389Z" fill="white" stroke="#E3E3E3"/>
<path opacity="0.72" d="M25.1471 126.682C31.9773 126.682 37.5144 121.145 37.5144 114.315C37.5144 107.484 31.9773 101.947 25.1471 101.947C18.3168 101.947 12.7797 107.484 12.7797 114.315C12.7797 121.145 18.3168 126.682 25.1471 126.682Z" fill="#F85F5F"/>
<path fill-rule="evenodd" clip-rule="evenodd" d="M25.1373 117.665C24.5021 117.693 23.8676 117.592 23.2732 117.366C22.6787 117.14 22.1369 116.795 21.681 116.352C20.7796 115.35 20.2659 114.059 20.2329 112.712H22.0962C22.1253 113.282 22.2698 113.84 22.521 114.353C22.764 114.826 23.1432 115.215 23.6097 115.469C24.0761 115.724 24.6083 115.833 25.1373 115.782C25.6769 115.83 26.2185 115.715 26.692 115.452C27.1654 115.188 27.5487 114.789 27.7923 114.305C28.033 113.81 28.1679 113.271 28.1881 112.722H30.0514C30.0784 113.375 29.97 114.028 29.733 114.638C29.496 115.248 29.1355 115.802 28.6741 116.266C28.2127 116.731 27.6604 117.094 27.0517 117.335C26.4431 117.576 25.7914 117.688 25.1373 117.665Z" fill="white"/>
</svg>
