<svg width="114" height="229" viewBox="0 0 114 229" fill="none" xmlns="http://www.w3.org/2000/svg">
<path d="M102.541 1.24585H12.3201C6.41653 1.24585 1.63074 6.03164 1.63074 11.9352V217.259C1.63074 223.162 6.41653 227.948 12.3201 227.948H102.541C108.444 227.948 113.23 223.162 113.23 217.259V11.9352C113.23 6.03164 108.444 1.24585 102.541 1.24585Z" fill="white"/>
<path opacity="0.24" fill-rule="evenodd" clip-rule="evenodd" d="M12.3201 2.01596C6.84185 2.01596 2.40085 6.45696 2.40085 11.9352V217.259C2.40085 222.737 6.84185 227.178 12.3201 227.178H102.541C108.019 227.178 112.46 222.737 112.46 217.259V11.9352C112.46 6.45696 108.019 2.01596 102.541 2.01596H12.3201ZM0.860596 11.9352C0.860596 5.6063 5.99119 0.475708 12.3201 0.475708H102.541C108.869 0.475708 114 5.6063 114 11.9352V217.259C114 223.588 108.869 228.718 102.541 228.718H12.3201C5.99119 228.718 0.860596 223.588 0.860596 217.259V11.9352Z" fill="#646C76"/>
<path d="M104.135 29.2168H10.78C9.89103 29.2168 9.17041 29.9374 9.17041 30.8264V201.148C9.17041 202.037 9.89103 202.757 10.78 202.757H104.135C105.024 202.757 105.744 202.037 105.744 201.148V30.8264C105.744 29.9374 105.024 29.2168 104.135 29.2168Z" fill="#F2F1F1"/>
<path d="M10.78 29.3168H104.135C104.969 29.3168 105.644 29.9926 105.644 30.8264V201.148C105.644 201.981 104.969 202.657 104.135 202.657H10.78C9.94626 202.657 9.27041 201.981 9.27041 201.148V30.8264C9.27041 29.9926 9.94626 29.3168 10.78 29.3168Z" stroke="#646C76" stroke-opacity="0.24" stroke-width="0.2"/>
<path d="M65.8211 15.3623H49.0939C48.4602 15.3623 47.9464 15.8761 47.9464 16.5098V16.7485C47.9464 17.3823 48.4602 17.896 49.0939 17.896H65.8211C66.4548 17.896 66.9686 17.3823 66.9686 16.7485V16.5098C66.9686 15.8761 66.4548 15.3623 65.8211 15.3623Z" fill="#DADCDE"/>
<path d="M57.4573 222.711C55.7663 222.711 54.1133 222.21 52.7073 221.27C51.3014 220.331 50.2057 218.995 49.5589 217.433C48.9121 215.87 48.7433 214.151 49.0738 212.492C49.4042 210.834 50.2192 209.311 51.4154 208.116C52.6117 206.92 54.1356 206.107 55.7944 205.778C57.4531 205.449 59.1721 205.619 60.734 206.268C62.2959 206.916 63.6305 208.013 64.5688 209.419C65.5072 210.826 66.0073 212.48 66.0058 214.171C66.0037 216.437 65.1022 218.609 63.4993 220.21C61.8964 221.812 59.7232 222.711 57.4573 222.711ZM57.4573 206.131C55.8672 206.131 54.3127 206.602 52.9905 207.486C51.6683 208.369 50.6378 209.625 50.0292 211.094C49.4207 212.563 49.2615 214.18 49.5717 215.739C49.8819 217.299 50.6477 218.732 51.7721 219.856C52.8965 220.98 54.3292 221.746 55.8888 222.056C57.4484 222.367 59.065 222.207 60.5342 221.599C62.0033 220.99 63.259 219.96 64.1425 218.638C65.0259 217.315 65.4975 215.761 65.4975 214.171C65.4954 212.039 64.6477 209.995 63.1403 208.488C61.6329 206.98 59.5891 206.133 57.4573 206.131Z" fill="#DADCDE"/>
<path d="M82.4941 187.54H19.5054C16.9662 187.54 14.9077 189.598 14.9077 192.137V193.084C14.9077 195.624 16.9662 197.682 19.5054 197.682H82.4941C85.0333 197.682 87.0918 195.624 87.0918 193.084V192.137C87.0918 189.598 85.0333 187.54 82.4941 187.54Z" fill="white"/>
<path d="M94.8703 197.744C97.7073 197.744 100.007 195.444 100.007 192.607C100.007 189.77 97.7073 187.47 94.8703 187.47C92.0333 187.47 89.7335 189.77 89.7335 192.607C89.7335 195.444 92.0333 197.744 94.8703 197.744Z" fill="#00A88F"/>
<path d="M74.5309 71.5124H29.2089H19.9674C19.8661 71.5113 19.7669 71.5406 19.6823 71.5964C19.5978 71.6521 19.5318 71.7319 19.493 71.8254C19.4541 71.9189 19.444 72.0219 19.464 72.1212C19.4841 72.2205 19.5333 72.3115 19.6054 72.3826L24.1338 76.9109V91.9438C24.1358 92.8031 24.4781 93.6266 25.0857 94.2342C25.6933 94.8418 26.5168 95.184 27.376 95.1861H74.5386C75.3979 95.184 76.2214 94.8418 76.829 94.2342C77.4366 93.6266 77.7788 92.8031 77.7809 91.9438V74.7546C77.7788 73.894 77.4355 73.0693 76.8263 72.4615C76.217 71.8537 75.3915 71.5124 74.5309 71.5124Z" fill="white"/>
<path d="M64.0573 84.0653H30.9418C30.84 84.0758 30.737 84.0648 30.6397 84.033C30.5424 84.0012 30.4528 83.9494 30.3768 83.8808C30.3007 83.8122 30.2399 83.7284 30.1983 83.6348C30.1567 83.5412 30.1353 83.44 30.1353 83.3376C30.1353 83.2352 30.1567 83.1339 30.1983 83.0403C30.2399 82.9468 30.3007 82.863 30.3768 82.7944C30.4528 82.7258 30.5424 82.6739 30.6397 82.6421C30.737 82.6103 30.84 82.5993 30.9418 82.6098H64.0573C64.2374 82.6284 64.4042 82.713 64.5255 82.8475C64.6468 82.9819 64.714 83.1565 64.714 83.3376C64.714 83.5186 64.6468 83.6933 64.5255 83.8277C64.4042 83.9621 64.2374 84.0468 64.0573 84.0653Z" fill="#CCCFD2"/>
<path d="M40.3604 87.0611H30.8879C30.7078 87.0425 30.5409 86.9578 30.4196 86.8234C30.2983 86.689 30.2312 86.5144 30.2312 86.3333C30.2312 86.1522 30.2983 85.9776 30.4196 85.8432C30.5409 85.7088 30.7078 85.6241 30.8879 85.6055H40.3604C40.4623 85.595 40.5652 85.606 40.6626 85.6378C40.7599 85.6696 40.8495 85.7215 40.9255 85.7901C41.0015 85.8587 41.0623 85.9425 41.1039 86.0361C41.1455 86.1296 41.167 86.2309 41.167 86.3333C41.167 86.4357 41.1455 86.537 41.1039 86.6305C41.0623 86.7241 41.0015 86.8079 40.9255 86.8765C40.8495 86.9451 40.7599 86.997 40.6626 87.0288C40.5652 87.0606 40.4623 87.0716 40.3604 87.0611Z" fill="#CCCFD2"/>
<path d="M45.7745 80.8694H30.9572C30.8554 80.8799 30.7524 80.8689 30.6551 80.8371C30.5578 80.8053 30.4682 80.7534 30.3921 80.6848C30.3161 80.6162 30.2553 80.5324 30.2137 80.4389C30.1721 80.3453 30.1506 80.2441 30.1506 80.1417C30.1506 80.0393 30.1721 79.938 30.2137 79.8444C30.2553 79.7509 30.3161 79.6671 30.3921 79.5985C30.4682 79.5299 30.5578 79.478 30.6551 79.4462C30.7524 79.4144 30.8554 79.4034 30.9572 79.4139H45.7745C45.9546 79.4324 46.1214 79.5171 46.2427 79.6515C46.364 79.786 46.4311 79.9606 46.4311 80.1417C46.4311 80.3227 46.364 80.4973 46.2427 80.6318C46.1214 80.7662 45.9546 80.8509 45.7745 80.8694Z" fill="#CCCFD2"/>
<path d="M42.1627 137.62H87.4846H96.7262C96.8274 137.619 96.9267 137.648 97.0113 137.704C97.0958 137.76 97.1617 137.839 97.2006 137.933C97.2395 138.026 97.2496 138.129 97.2296 138.229C97.2095 138.328 97.1603 138.419 97.0881 138.49L92.5598 143.018V162.062C92.5578 162.922 92.2155 163.745 91.6079 164.353C91.0003 164.96 90.1768 165.303 89.3176 165.305H42.1627C41.3034 165.303 40.4799 164.96 39.8723 164.353C39.2647 163.745 38.9224 162.922 38.9204 162.062L38.9204 140.862C38.9224 140.003 39.2647 139.179 39.8723 138.572C40.4799 137.964 41.3034 137.622 42.1627 137.62Z" fill="white"/>
<path d="M48.6856 151.983H85.6517C85.8058 151.932 85.9399 151.834 86.035 151.703C86.1302 151.571 86.1814 151.413 86.1814 151.251C86.1814 151.089 86.1302 150.931 86.035 150.8C85.9399 150.668 85.8058 150.57 85.6517 150.52H48.6856C48.4916 150.52 48.3055 150.597 48.1683 150.734C48.0311 150.871 47.954 151.057 47.954 151.251C47.954 151.445 48.0311 151.631 48.1683 151.768C48.3055 151.906 48.4916 151.983 48.6856 151.983Z" fill="#CCCFD2"/>
<path d="M69.0171 155.995H85.675C85.7768 156.006 85.8797 155.995 85.9771 155.963C86.0744 155.931 86.164 155.879 86.24 155.811C86.3161 155.742 86.3768 155.658 86.4184 155.565C86.46 155.471 86.4815 155.37 86.4815 155.267C86.4815 155.165 86.46 155.064 86.4184 154.97C86.3768 154.877 86.3161 154.793 86.24 154.724C86.164 154.656 86.0744 154.604 85.9771 154.572C85.8797 154.54 85.7768 154.529 85.675 154.54H69.0171C68.9153 154.529 68.8124 154.54 68.715 154.572C68.6177 154.604 68.5281 154.656 68.4521 154.724C68.3761 154.793 68.3153 154.877 68.2737 154.97C68.2321 155.064 68.2106 155.165 68.2106 155.267C68.2106 155.37 68.2321 155.471 68.2737 155.565C68.3153 155.658 68.3761 155.742 68.4521 155.811C68.5281 155.879 68.6177 155.931 68.715 155.963C68.8124 155.995 68.9153 156.006 69.0171 155.995Z" fill="#CCCFD2"/>
<path d="M70.9193 148.101H85.7365C85.8384 148.112 85.9413 148.101 86.0386 148.069C86.136 148.037 86.2256 147.985 86.3016 147.917C86.3776 147.848 86.4384 147.764 86.48 147.671C86.5216 147.577 86.5431 147.476 86.5431 147.373C86.5431 147.271 86.5216 147.17 86.48 147.076C86.4384 146.983 86.3776 146.899 86.3016 146.83C86.2256 146.762 86.136 146.71 86.0386 146.678C85.9413 146.646 85.8384 146.635 85.7365 146.646H70.9193C70.8174 146.635 70.7145 146.646 70.6171 146.678C70.5198 146.71 70.4302 146.762 70.3542 146.83C70.2782 146.899 70.2174 146.983 70.1758 147.076C70.1342 147.17 70.1127 147.271 70.1127 147.373C70.1127 147.476 70.1342 147.577 70.1758 147.671C70.2174 147.764 70.2782 147.848 70.3542 147.917C70.4302 147.985 70.5198 148.037 70.6171 148.069C70.7145 148.101 70.8174 148.112 70.9193 148.101Z" fill="#CCCFD2"/>
<path d="M42.8635 101.409H88.1855H97.427C97.5283 101.408 97.6275 101.437 97.712 101.493C97.7966 101.549 97.8625 101.628 97.9014 101.722C97.9403 101.815 97.9504 101.918 97.9304 102.018C97.9103 102.117 97.8611 102.208 97.7889 102.279L93.2606 106.807V121.833C93.2586 122.692 92.9163 123.515 92.3087 124.123C91.7011 124.73 90.8776 125.073 90.0184 125.075H42.8635C42.0042 125.073 41.1807 124.73 40.5731 124.123C39.9655 123.515 39.6232 122.692 39.6212 121.833V104.659C39.6232 103.799 39.9652 102.974 40.5726 102.366C41.18 101.757 42.0035 101.413 42.8635 101.409Z" fill="white"/>
<path d="M58.1813 114.085H86.4373C86.6314 114.085 86.8174 114.008 86.9546 113.871C87.0919 113.733 87.1689 113.547 87.1689 113.353C87.1689 113.159 87.0919 112.973 86.9546 112.836C86.8174 112.699 86.6314 112.622 86.4373 112.622H58.1813C57.9873 112.622 57.8012 112.699 57.664 112.836C57.5268 112.973 57.4497 113.159 57.4497 113.353C57.4497 113.547 57.5268 113.733 57.664 113.871C57.8012 114.008 57.9873 114.085 58.1813 114.085Z" fill="#CCCFD2"/>
<path d="M65.097 117.52H86.4989C86.6929 117.52 86.879 117.443 87.0162 117.305C87.1534 117.168 87.2305 116.982 87.2305 116.788C87.2305 116.594 87.1534 116.408 87.0162 116.271C86.879 116.134 86.6929 116.056 86.4989 116.056H65.097C64.9814 116.018 64.8583 116.008 64.738 116.027C64.6177 116.046 64.5036 116.093 64.405 116.164C64.3063 116.236 64.226 116.329 64.1707 116.438C64.1153 116.546 64.0864 116.666 64.0864 116.788C64.0864 116.91 64.1153 117.03 64.1707 117.138C64.226 117.247 64.3063 117.34 64.405 117.412C64.5036 117.483 64.6177 117.53 64.738 117.549C64.8583 117.568 64.9814 117.558 65.097 117.52Z" fill="#CCCFD2"/>
<path d="M75.1011 110.766H86.4374C86.5393 110.776 86.6422 110.765 86.7396 110.733C86.8369 110.701 86.9265 110.65 87.0025 110.581C87.0785 110.512 87.1393 110.429 87.1809 110.335C87.2225 110.241 87.244 110.14 87.244 110.038C87.244 109.935 87.2225 109.834 87.1809 109.741C87.1393 109.647 87.0785 109.563 87.0025 109.495C86.9265 109.426 86.8369 109.374 86.7396 109.342C86.6422 109.311 86.5393 109.3 86.4374 109.31H75.1011C74.9993 109.3 74.8964 109.311 74.799 109.342C74.7017 109.374 74.6121 109.426 74.5361 109.495C74.46 109.563 74.3993 109.647 74.3577 109.741C74.3161 109.834 74.2946 109.935 74.2946 110.038C74.2946 110.14 74.3161 110.241 74.3577 110.335C74.3993 110.429 74.46 110.512 74.5361 110.581C74.6121 110.65 74.7017 110.701 74.799 110.733C74.8964 110.765 74.9993 110.776 75.1011 110.766Z" fill="#CCCFD2"/>
<path d="M93.276 41.0998V60.6533C93.2719 61.5133 92.928 62.3368 92.3191 62.9442C91.7103 63.5516 90.886 63.8936 90.026 63.8956H42.8635C42.0042 63.8935 41.1807 63.5513 40.5731 62.9437C39.9655 62.3361 39.6232 61.5126 39.6212 60.6533V43.5103C39.6232 42.651 39.9655 41.8275 40.5731 41.2199C41.1807 40.6123 42.0042 40.2701 42.8635 40.2681H88.1777H93.276V41.0998Z" fill="white"/>
<path d="M58.1812 52.9212H86.4449C86.625 52.9027 86.7918 52.818 86.9131 52.6836C87.0344 52.5492 87.1015 52.3745 87.1015 52.1935C87.1015 52.0124 87.0344 51.8378 86.9131 51.7034C86.7918 51.5689 86.625 51.4843 86.4449 51.4657H58.1812C58.0011 51.4843 57.8343 51.5689 57.713 51.7034C57.5917 51.8378 57.5245 52.0124 57.5245 52.1935C57.5245 52.3745 57.5917 52.5492 57.713 52.6836C57.8343 52.818 58.0011 52.9027 58.1812 52.9212Z" fill="#CCCFD2"/>
<path d="M65.1047 56.3561H86.5065C86.6084 56.3666 86.7113 56.3556 86.8086 56.3238C86.906 56.292 86.9956 56.2401 87.0716 56.1715C87.1476 56.1029 87.2084 56.0192 87.25 55.9256C87.2916 55.832 87.3131 55.7308 87.3131 55.6284C87.3131 55.526 87.2916 55.4247 87.25 55.3311C87.2084 55.2375 87.1476 55.1538 87.0716 55.0852C86.9956 55.0166 86.906 54.9647 86.8086 54.9329C86.7113 54.9011 86.6084 54.8901 86.5065 54.9006H65.1047C65.0028 54.8901 64.8999 54.9011 64.8026 54.9329C64.7052 54.9647 64.6156 55.0166 64.5396 55.0852C64.4636 55.1538 64.4028 55.2375 64.3612 55.3311C64.3196 55.4247 64.2981 55.526 64.2981 55.6284C64.2981 55.7308 64.3196 55.832 64.3612 55.9256C64.4028 56.0192 64.4636 56.1029 64.5396 56.1715C64.6156 56.2401 64.7052 56.292 64.8026 56.3238C64.8999 56.3556 65.0028 56.3666 65.1047 56.3561Z" fill="#CCCFD2"/>
<path d="M75.101 49.6096H86.445C86.599 49.559 86.7332 49.461 86.8283 49.3296C86.9234 49.1982 86.9746 49.0402 86.9746 48.878C86.9746 48.7158 86.9234 48.5578 86.8283 48.4264C86.7332 48.295 86.599 48.197 86.445 48.1464H75.101C74.907 48.1464 74.7209 48.2234 74.5837 48.3607C74.4465 48.4979 74.3694 48.6839 74.3694 48.878C74.3694 49.072 74.4465 49.2581 74.5837 49.3953C74.7209 49.5325 74.907 49.6096 75.101 49.6096Z" fill="#CCCFD2"/>
</svg>
