<?xml version="1.0" standalone="no"?>
<!DOCTYPE svg PUBLIC "-//W3C//DTD SVG 20010904//EN"
 "http://www.w3.org/TR/2001/REC-SVG-20010904/DTD/svg10.dtd">
<svg version="1.0" xmlns="http://www.w3.org/2000/svg"
 width="700.000000pt" height="700.000000pt" viewBox="0 0 700.000000 700.000000"
 preserveAspectRatio="xMidYMid meet">
<metadata>
Created by potrace 1.11, written by Peter Selinger 2001-2013
</metadata>
<g transform="translate(0.000000,700.000000) scale(0.100000,-0.100000)"
fill="#000000" stroke="none">
<path d="M2960 6003 c-100 -33 -179 -121 -206 -229 -4 -16 -9 -166 -11 -334
-3 -167 -6 -306 -8 -309 -3 -2 -100 -5 -217 -6 -117 -1 -226 -5 -243 -10 -85
-23 -167 -84 -218 -160 -60 -91 -58 -36 -55 -1496 l3 -1334 32 -60 c39 -76 99
-137 169 -171 l53 -26 -59 -40 c-197 -131 -261 -379 -153 -592 33 -65 125
-157 192 -191 256 -129 569 4 645 275 34 122 19 255 -40 356 -28 48 -100 125
-148 159 l-28 20 820 0 c452 0 824 -3 827 -7 3 -3 -9 -15 -27 -26 -103 -64
-182 -199 -194 -333 -25 -270 199 -505 469 -494 120 5 215 46 301 130 88 87
131 188 135 315 5 163 -82 319 -221 399 l-47 27 37 14 c90 32 173 114 213 210
l23 55 0 1345 0 1345 -23 57 c-44 112 -156 205 -272 226 -24 5 -135 8 -247 8
l-202 -1 -1 30 c0 17 -1 156 -3 310 l-2 280 -30 74 c-36 91 -106 162 -178 180
-46 11 -1052 15 -1086 4z m987 -283 c13 -8 26 -21 30 -30 9 -20 12 -554 2
-560 -4 -3 -222 -5 -486 -4 l-478 0 -3 255 c-2 140 0 269 3 287 4 22 16 39 35
51 26 16 65 17 452 16 351 0 427 -3 445 -15z m-1393 -4121 c99 -67 105 -210
13 -291 -113 -98 -300 -13 -300 137 0 86 44 148 126 176 58 20 111 12 161 -22z
m2084 8 c118 -70 122 -245 7 -312 -134 -79 -292 15 -280 168 8 100 86 169 185
165 33 -1 68 -10 88 -21z"/>
</g>
</svg>
