<svg width="84" height="28" viewBox="0 0 84 28" fill="none" xmlns="http://www.w3.org/2000/svg">
<path fill-rule="evenodd" clip-rule="evenodd" d="M49.5412 5.35486C49.7151 5.28383 49.9018 5.24818 50.0902 5.25007C50.4752 5.25033 50.8444 5.40055 51.1168 5.66777C51.252 5.79711 51.3591 5.95209 51.4315 6.1233C51.5038 6.2945 51.54 6.47837 51.5377 6.66371C51.5378 6.85127 51.5001 7.03698 51.4268 7.21019C51.3535 7.3834 51.2461 7.54069 51.1107 7.67304C50.9789 7.80523 50.8212 7.90986 50.6471 7.98062C50.473 8.05139 50.2862 8.08682 50.0977 8.08479C49.9067 8.0844 49.7175 8.0469 49.5414 7.97445C49.3652 7.90199 49.2053 7.79602 49.071 7.66263C48.9365 7.5335 48.8302 7.37891 48.7583 7.20822C48.6865 7.03754 48.6507 6.85432 48.6531 6.66967C48.6537 6.29217 48.8067 5.93031 49.0786 5.66332C49.21 5.53083 49.3673 5.42589 49.5412 5.35486ZM57.4221 5.25C56.7619 5.25 56.1048 5.77621 56.1048 6.42432V21.7455H58.738V6.42432C58.738 5.77621 58.0823 5.25 57.4221 5.25ZM48.7743 10.3502C48.7743 9.67381 49.4026 9.12681 50.0916 9.12681C50.7791 9.12681 51.4015 9.67381 51.4015 10.3502V21.7455H48.7743V10.3502ZM41.091 9.49097C41.6741 9.72687 42.2036 10.074 42.6492 10.5122C43.5634 11.4119 44.0769 12.6307 44.0771 13.9014V21.7485H41.4332V13.9044C41.4409 13.6168 41.3872 13.3308 41.2756 13.0648C41.164 12.7989 40.9969 12.5587 40.7851 12.3599C40.5778 12.1546 40.33 11.9931 40.0568 11.8852C39.7837 11.7774 39.491 11.7255 39.1966 11.7326C38.5986 11.7255 38.0221 11.9509 37.593 12.3599C37.3784 12.551 37.2084 12.7855 37.095 13.0473C36.9816 13.309 36.9273 13.5917 36.9359 13.8761V21.7485H34.2662V13.8791C34.2788 13.5966 34.2288 13.3148 34.1198 13.053C34.0108 12.7913 33.8453 12.5558 33.6348 12.3629C33.1981 11.9493 32.6122 11.7226 32.0054 11.7326C31.7175 11.7261 31.4313 11.7782 31.1647 11.8854C30.8982 11.9925 30.657 12.1526 30.4563 12.3555C30.2359 12.5604 30.061 12.8078 29.9427 13.0823C29.8244 13.3568 29.7652 13.6524 29.7689 13.9505V21.7396H27.125V10.5241C27.1254 10.2317 27.244 9.95141 27.4545 9.74461C27.6652 9.53782 27.9508 9.42155 28.2486 9.42112H28.6453C28.8769 9.41776 29.1047 9.47917 29.302 9.5982C29.4993 9.71714 29.6581 9.88879 29.7598 10.093C30.0005 9.85374 30.278 9.65315 30.5821 9.49846C31.0203 9.26764 31.5082 9.14284 32.0054 9.13423C32.7274 9.12622 33.4418 9.27867 34.0951 9.5802C34.6558 9.84289 35.162 10.2053 35.5881 10.649C36.0187 10.2043 36.5296 9.84194 37.0948 9.5802C37.7528 9.27953 38.4709 9.12717 39.1966 9.13423C39.8458 9.13027 40.4893 9.25154 41.091 9.49097ZM63.4352 6.42432C63.4352 5.77621 64.0923 5.25 64.7526 5.25C65.4128 5.25 66.0684 5.77621 66.0684 6.42432V21.7455H63.4352V6.42432ZM80.8687 9.80745C81.1166 9.56422 81.4525 9.42737 81.8031 9.42694C82.1536 9.42737 82.4895 9.56422 82.7374 9.80745C82.9852 10.0508 83.1246 10.3806 83.125 10.7247V21.7454H80.4751V20.1935C80.0219 20.6409 79.5028 21.0187 78.935 21.3143C78.2239 21.6833 77.4317 21.8757 76.6273 21.8747C75.7683 21.8797 74.9168 21.7165 74.1228 21.3946C73.3476 21.0755 72.6446 20.6087 72.0543 20.0211C71.4528 19.4448 70.9768 18.7544 70.6552 17.992C70.2438 17.0259 70.0818 15.9749 70.1836 14.9325C70.2854 13.8901 70.6478 12.8884 71.2386 12.0164C71.8294 11.1446 72.6305 10.4294 73.5705 9.93431C74.5106 9.43925 75.5606 9.17975 76.6273 9.17872C78.0697 9.17329 79.4555 9.72916 80.4811 10.7247C80.4815 10.3806 80.6209 10.0508 80.8687 9.80745ZM79.3454 18.2136C79.6963 17.8691 79.9733 17.4592 80.1601 17.008V17.0005C80.4325 16.3541 80.522 15.6474 80.419 14.9552C80.3949 14.7891 80.358 14.6251 80.3084 14.4646C80.1295 13.8576 79.8003 13.3034 79.3499 12.8518C78.9982 12.5085 78.5809 12.2367 78.1219 12.0521C77.6484 11.8587 77.1402 11.7602 76.6273 11.7622C76.4247 11.762 76.2223 11.776 76.0216 11.8039C75.8523 11.8267 75.6853 11.863 75.5219 11.9124C74.8992 12.0826 74.3322 12.4087 73.8764 12.8588C73.4207 13.3088 73.0918 13.8672 72.9219 14.4795C72.8716 14.6418 72.8351 14.8078 72.8129 14.976C72.7106 15.6636 72.799 16.3656 73.0689 17.008C73.2569 17.4586 73.5338 17.8683 73.8835 18.2136C74.3513 18.6632 74.9275 18.9895 75.5583 19.1619C75.7256 19.2108 75.8968 19.2461 76.0701 19.2675C76.7634 19.3623 77.4699 19.2746 78.1173 19.0132C78.577 18.8299 78.9946 18.558 79.3454 18.2136Z" fill="#1F3553"/>
<path fill-rule="evenodd" clip-rule="evenodd" d="M12.1388 4.92264H11.6253C11.493 4.92224 11.5166 4.92264 11.3767 4.92264C11.2369 4.92264 11.1269 4.92264 11.1269 4.92264V2.07951C11.1269 2.04024 11.1269 2.00399 11.1269 1.96927C11.1166 1.84495 11.0597 1.72916 10.9675 1.64511C10.8754 1.56108 10.7548 1.51502 10.6301 1.51621H6.17508C6.04513 1.51499 5.91995 1.56503 5.82666 1.6555C5.73337 1.74596 5.6795 1.86955 5.67672 1.99946V4.9186C5.46873 4.9186 5.64305 4.9186 5.52978 4.9186C5.35935 4.9186 5.30916 4.9186 5.17685 4.9186H4.6634C4.53123 4.9186 4.49802 4.9186 4.31101 4.9186C4.19383 4.9186 4.16504 4.9186 4.16504 4.9186V2.00098C4.16504 0.859286 4.81441 0 5.67521 0H11.13C12.0059 0 12.6401 0.874389 12.6401 2.07951V4.92264C12.6401 4.92264 12.6401 4.92264 12.6019 4.92264C12.5216 4.92264 12.5556 4.92264 12.4931 4.92264C12.4308 4.92264 12.4271 4.92264 12.3305 4.92264C12.2339 4.92264 12.2045 4.92284 12.1388 4.92264Z" fill="#1F3553"/>
<path fill-rule="evenodd" clip-rule="evenodd" d="M2.05082 23.1872H14.7362C15.2792 23.1864 15.7996 22.9707 16.1839 22.5872C16.5682 22.2038 16.785 21.6838 16.787 21.141V6.97552C16.7877 6.70575 16.7351 6.43851 16.6323 6.18909C16.5295 5.93966 16.3786 5.71295 16.1881 5.52191C15.9976 5.33088 15.7713 5.17927 15.5222 5.07576C15.2731 4.97225 15.006 4.91886 14.7362 4.91867H2.04326C1.49974 4.92107 0.97937 5.13898 0.596309 5.52458C0.213252 5.91019 -0.00120008 6.43199 5.05191e-06 6.97552V21.1349C0.000404409 21.6788 0.216551 22.2003 0.601023 22.5851C0.985495 22.9699 1.50689 23.1864 2.05082 23.1872Z" fill="#00A88F"/>
<path fill-rule="evenodd" clip-rule="evenodd" d="M2.54011 27.9955C2.03696 27.9946 1.54536 27.8445 1.12746 27.5643C0.709563 27.2841 0.384116 26.8862 0.192258 26.4211C0.00039936 25.956 -0.0492583 25.4444 0.0495606 24.9511C0.14838 24.4577 0.39124 24.0047 0.747444 23.6493C1.10365 23.294 1.55721 23.0522 2.0508 22.9546C2.54438 22.8569 3.05584 22.9078 3.52052 23.1007C3.9852 23.2937 4.38225 23.6201 4.66147 24.0386C4.9407 24.4572 5.08958 24.9491 5.08928 25.4523C5.08888 25.7867 5.02263 26.1177 4.8943 26.4264C4.76599 26.7352 4.5781 27.0156 4.34139 27.2518C4.10468 27.488 3.82378 27.6752 3.51471 27.8028C3.20564 27.9304 2.87447 27.9958 2.54011 27.9955ZM2.54009 24.4193C2.33605 24.4206 2.13693 24.4822 1.96787 24.5964C1.79879 24.7106 1.66734 24.8723 1.59008 25.0612C1.51282 25.2501 1.49323 25.4575 1.53376 25.6575C1.5743 25.8575 1.67316 26.041 1.81786 26.1848C1.96256 26.3287 2.14661 26.4265 2.34682 26.4659C2.54703 26.5052 2.75441 26.4844 2.94281 26.406C3.13121 26.3277 3.29218 26.1953 3.40541 26.0256C3.51866 25.8558 3.57908 25.6563 3.57909 25.4523C3.57889 25.3162 3.55184 25.1815 3.49948 25.0559C3.44713 24.9303 3.37048 24.8162 3.27396 24.7203C3.17745 24.6243 3.06294 24.5483 2.93701 24.4967C2.81108 24.4451 2.6762 24.4187 2.54009 24.4193ZM14.2546 27.9999C13.7512 28.0003 13.259 27.8512 12.8403 27.5717C12.4216 27.2922 12.0952 26.8948 11.9024 26.4298C11.7096 25.9648 11.6591 25.453 11.7572 24.9592C11.8554 24.4654 12.0978 24.0119 12.4537 23.656C12.8097 23.3 13.2633 23.0576 13.757 22.9595C14.2508 22.8613 14.7625 22.9119 15.2276 23.1046C15.6926 23.2974 16.09 23.6238 16.3695 24.0425C16.649 24.4612 16.798 24.9534 16.7977 25.4568C16.7969 26.131 16.5287 26.7775 16.052 27.2542C15.5752 27.7309 14.9288 27.9991 14.2546 27.9999ZM14.2545 24.4239C14.0502 24.4239 13.8506 24.4844 13.6807 24.5979C13.5108 24.7114 13.3784 24.8728 13.3003 25.0615C13.222 25.2502 13.2016 25.458 13.2415 25.6583C13.2813 25.8587 13.3797 26.0427 13.5242 26.1872C13.6686 26.3316 13.8527 26.4301 14.053 26.4699C14.2534 26.5098 14.4611 26.4893 14.6499 26.4111C14.8386 26.333 15 26.2006 15.1134 26.0306C15.2269 25.8608 15.2875 25.6611 15.2875 25.4568C15.2871 25.1829 15.1782 24.9204 14.9846 24.7268C14.7909 24.5332 14.5284 24.4242 14.2545 24.4239Z" fill="#1F3553"/>
<path fill-rule="evenodd" clip-rule="evenodd" d="M8.25014 16.3038C7.08731 16.3038 6.13591 15.9474 5.44123 15.2467C4.28293 14.0853 4.27386 12.403 4.27386 12.3321H5.78404C5.8041 12.7885 5.91987 13.2356 6.12382 13.6444C6.52704 14.4191 7.22171 14.7951 8.24863 14.7951C9.27554 14.7951 9.99741 14.4055 10.3991 13.6036C10.5929 13.2069 10.7028 12.7746 10.7223 12.3336H12.2324C12.2355 13.7048 11.4034 16.3038 8.25014 16.3038Z" fill="white"/>
</svg>
